<svg width="65" height="69" viewBox="0 0 65 69" fill="none" xmlns="http://www.w3.org/2000/svg">
<path d="M13.5417 14.3655V22.9905H51.4583V14.3655H13.5417ZM10.8333 8.61548H54.1667C55.6625 8.61548 56.875 9.90267 56.875 11.4905V25.8655C56.875 27.4533 55.6625 28.7405 54.1667 28.7405H10.8333C9.33757 28.7405 8.125 27.4533 8.125 25.8655V11.4905C8.125 9.90267 9.33757 8.61548 10.8333 8.61548ZM16.25 34.4905H32.5C33.9958 34.4905 35.2083 35.7776 35.2083 37.3655V45.9905H37.9167V63.2405H27.0833V45.9905H29.7917V40.2405H13.5417C12.0459 40.2405 10.8333 38.9533 10.8333 37.3655V31.6155H16.25V34.4905ZM48.0247 39.4706L52.8125 34.3884L57.6003 39.4706C60.2444 42.2774 60.2444 46.8285 57.6003 49.6354C54.9561 52.4423 50.6689 52.4423 48.0247 49.6354C45.3806 46.8285 45.3806 42.2774 48.0247 39.4706Z" fill="white"/>
</svg>
