<svg width="83" height="58" viewBox="0 0 83 58" fill="none" xmlns="http://www.w3.org/2000/svg">
<mask id="path-1-outside-1_103_67" maskUnits="userSpaceOnUse" x="0" y="0.417969" width="83" height="57" fill="black">
<rect fill="white" y="0.417969" width="83" height="57"/>
<path d="M22.2763 19.338C22.4544 19.338 22.6081 19.4062 22.7376 19.5426C22.867 19.6791 22.9318 19.8411 22.9318 20.0287V23.8919C22.9318 24.0795 22.867 24.2416 22.7376 24.378C22.6081 24.5145 22.4544 24.5827 22.2763 24.5827H7.61428C7.43627 24.5827 7.28253 24.5145 7.15306 24.378C7.02359 24.2416 6.95886 24.0795 6.95886 23.8919V20.0287C6.95886 19.8411 7.02359 19.6791 7.15306 19.5426C7.28253 19.4062 7.43627 19.338 7.61428 19.338H12.1051V13.1978L9.65338 14.9119C9.52391 14.9972 9.40254 15.0398 9.28925 15.0398C9.07887 15.0398 8.89276 14.929 8.73093 14.7072L6.76466 11.4836C6.71611 11.3813 6.69184 11.2619 6.69184 11.1254C6.69184 10.8526 6.78894 10.6393 6.98314 10.4858L12.3722 6.77615C12.4855 6.70792 12.6149 6.67381 12.7606 6.67381H17.7612C17.9392 6.67381 18.093 6.74203 18.2224 6.87848C18.3519 7.01493 18.4166 7.17696 18.4166 7.36458V19.338H22.2763Z"/>
<path d="M40.2789 17.9564C40.2789 20.2249 39.5263 21.939 38.0213 23.0988C36.5324 24.2586 34.5743 24.8385 32.1468 24.8385C29.7031 24.8385 27.7368 24.2586 26.2479 23.0988C24.7591 21.939 24.0147 20.2078 24.0147 17.9052V13.3513C24.0147 11.8162 24.3788 10.5285 25.107 9.48806C25.8353 8.44764 26.8063 7.68012 28.02 7.18549C29.25 6.67381 30.6255 6.41797 32.1468 6.41797C33.668 6.41797 35.0355 6.67381 36.2492 7.18549C37.4791 7.68012 38.4582 8.44764 39.1865 9.48806C39.9147 10.5114 40.2789 11.7821 40.2789 13.3001V17.9564ZM30.5689 18.1611C30.5689 18.6387 30.7226 19.0395 31.0301 19.3635C31.3376 19.6705 31.7098 19.8241 32.1468 19.8241C32.5837 19.8241 32.9559 19.662 33.2634 19.338C33.5709 19.0139 33.7246 18.6216 33.7246 18.1611V13.0443C33.7246 12.5667 33.5709 12.1744 33.2634 11.8674C32.9721 11.5433 32.5999 11.3813 32.1468 11.3813C31.6936 11.3813 31.3133 11.5433 31.0058 11.8674C30.7145 12.1915 30.5689 12.5837 30.5689 13.0443V18.1611Z"/>
<path d="M58.2328 6.67381C58.4108 6.67381 58.5646 6.74203 58.694 6.87848C58.8235 7.01493 58.8882 7.17696 58.8882 7.36458V11.4836C58.8882 11.6712 58.8235 11.8333 58.694 11.9697C58.5646 12.1062 58.4108 12.1744 58.2328 12.1744H53.0137V23.8919C53.0137 24.0795 52.949 24.2416 52.8195 24.378C52.69 24.5145 52.5363 24.5827 52.3583 24.5827H47.3577C47.1796 24.5827 47.0259 24.5145 46.8964 24.378C46.767 24.2416 46.7022 24.0795 46.7022 23.8919V12.1744H41.4831C41.3051 12.1744 41.1514 12.1062 41.0219 11.9697C40.8924 11.8333 40.8277 11.6712 40.8277 11.4836V7.36458C40.8277 7.17696 40.8924 7.01493 41.0219 6.87848C41.1514 6.74203 41.3051 6.67381 41.4831 6.67381H58.2328Z"/>
<path d="M75.6527 6.67381C75.8308 6.67381 75.9845 6.74203 76.114 6.87848C76.2434 7.01493 76.3082 7.17696 76.3082 7.36458V23.8919C76.3082 24.0795 76.2434 24.2416 76.114 24.378C75.9845 24.5145 75.8308 24.5827 75.6527 24.5827H70.6521C70.4741 24.5827 70.3204 24.5145 70.1909 24.378C70.0614 24.2416 69.9967 24.0795 69.9967 23.8919V18.4425H65.1417V23.8919C65.1417 24.0795 65.077 24.2416 64.9475 24.378C64.818 24.5145 64.6643 24.5827 64.4863 24.5827H59.4856C59.3076 24.5827 59.1539 24.523 59.0244 24.4036C58.8949 24.2672 58.8302 24.0966 58.8302 23.8919V7.36458C58.8302 7.17696 58.8949 7.01493 59.0244 6.87848C59.1539 6.74203 59.3076 6.67381 59.4856 6.67381H64.4863C64.6643 6.67381 64.818 6.74203 64.9475 6.87848C65.077 7.01493 65.1417 7.17696 65.1417 7.36458V12.6093H69.9967V7.36458C69.9967 7.17696 70.0614 7.01493 70.1909 6.87848C70.3204 6.74203 70.4741 6.67381 70.6521 6.67381H75.6527Z"/>
<path d="M23.6479 39.6262C23.8259 39.6262 23.9796 39.6944 24.1091 39.8308C24.2386 39.9673 24.3033 40.1293 24.3033 40.3169V43.0289C24.3033 45.6214 23.4618 47.5487 21.7787 48.8109C20.1118 50.056 17.9028 50.6785 15.1516 50.6785C12.4005 50.6785 10.1834 50.056 8.50032 48.8109C6.83344 47.5487 6 45.6043 6 42.9777V39.9588C6 38.219 6.40458 36.7778 7.21375 35.635C8.02291 34.4752 9.11528 33.6224 10.4909 33.0766C11.8664 32.5308 13.42 32.2579 15.1516 32.2579C17.2231 32.2579 18.9304 32.6161 20.2737 33.3325C21.6169 34.0488 22.5879 34.859 23.1867 35.763C23.8016 36.6669 24.1091 37.4003 24.1091 37.9632C24.1091 38.1167 24.0525 38.2532 23.9392 38.3725C23.8421 38.4749 23.7207 38.5261 23.5751 38.5261H18.0889C17.7653 38.5261 17.5306 38.4322 17.3849 38.2446C16.8833 37.5794 16.1388 37.2468 15.1516 37.2468C14.4072 37.2468 13.7842 37.4259 13.2825 37.7841C12.797 38.1423 12.5542 38.6028 12.5542 39.1657V43.515C12.5542 44.1972 12.797 44.7345 13.2825 45.1268C13.768 45.502 14.391 45.6896 15.1516 45.6896C16.155 45.6896 16.8914 45.5105 17.3607 45.1523C17.8462 44.7771 18.097 44.3422 18.1132 43.8475H16.6081C16.4301 43.8475 16.2764 43.7793 16.1469 43.6429C16.0175 43.5064 15.9527 43.3444 15.9527 43.1568V40.3169C15.9527 40.1293 16.0175 39.9673 16.1469 39.8308C16.2764 39.6944 16.4301 39.6262 16.6081 39.6262H23.6479Z"/>
<path d="M42.2573 49.6296C42.2896 49.6978 42.3058 49.7745 42.3058 49.8598C42.3058 50.0133 42.2492 50.1498 42.1359 50.2692C42.0388 50.3715 41.9174 50.4227 41.7718 50.4227H36.2614C36.0348 50.4227 35.8244 50.363 35.6302 50.2436C35.4522 50.1242 35.3227 49.9707 35.2418 49.7831L33.1056 44.7174H31.0665V49.7319C31.0665 49.9195 31.0018 50.0816 30.8723 50.218C30.7429 50.3545 30.5891 50.4227 30.4111 50.4227H25.1677C24.9897 50.4227 24.836 50.3545 24.7065 50.218C24.577 50.0816 24.5123 49.9195 24.5123 49.7319V33.2046C24.5123 33.0169 24.577 32.8549 24.7065 32.7185C24.836 32.582 24.9897 32.5138 25.1677 32.5138H34.6107C36.0672 32.5138 37.3375 32.7611 38.4218 33.2557C39.5223 33.7503 40.3638 34.4667 40.9464 35.4048C41.529 36.3429 41.8203 37.443 41.8203 38.7051C41.8203 41.0248 40.9707 42.7048 39.2715 43.7452L42.2573 49.6296ZM34.1009 39.9843C34.4569 39.9843 34.732 39.865 34.9262 39.6262C35.1204 39.3703 35.2175 39.0548 35.2175 38.6796C35.2175 38.3043 35.1204 37.9803 34.9262 37.7074C34.7482 37.4174 34.4731 37.2724 34.1009 37.2724H31.0665V39.9843H34.1009Z"/>
<path d="M53.6327 45.1779H58.0265C58.2045 45.1779 58.3582 45.2461 58.4877 45.3826C58.6172 45.519 58.6819 45.6811 58.6819 45.8687V49.7319C58.6819 49.9195 58.6172 50.0816 58.4877 50.218C58.3582 50.3545 58.2045 50.4227 58.0265 50.4227H42.6362C42.4582 50.4227 42.3044 50.3545 42.175 50.218C42.0455 50.0816 41.9808 49.9195 41.9808 49.7319V45.8687C41.9808 45.6811 42.0455 45.519 42.175 45.3826C42.3044 45.2461 42.4582 45.1779 42.6362 45.1779H47.0785V37.7585H42.6362C42.4582 37.7585 42.3044 37.6903 42.175 37.5539C42.0455 37.4174 41.9808 37.2554 41.9808 37.0678V33.2046C41.9808 33.0169 42.0455 32.8549 42.175 32.7185C42.3044 32.582 42.4582 32.5138 42.6362 32.5138H58.0265C58.2045 32.5138 58.3582 32.582 58.4877 32.7185C58.6172 32.8549 58.6819 33.0169 58.6819 33.2046V37.0678C58.6819 37.2554 58.6172 37.4174 58.4877 37.5539C58.3582 37.6903 58.2045 37.7585 58.0265 37.7585H53.6327V45.1779Z"/>
<path d="M67.9697 32.5138C70.7047 32.5138 72.8894 33.1363 74.524 34.3814C76.1747 35.6265 77 37.5539 77 40.1634V42.773C77 45.4338 76.1827 47.3782 74.5482 48.6062C72.9299 49.8172 70.7371 50.4227 67.9697 50.4227H60.226C60.048 50.4227 59.8943 50.3545 59.7648 50.218C59.6353 50.0816 59.5706 49.9195 59.5706 49.7319V33.2046C59.5706 33.0169 59.6353 32.8549 59.7648 32.7185C59.8943 32.582 60.048 32.5138 60.226 32.5138H67.9697ZM68.0911 45.4338C68.8517 45.4338 69.4505 45.2461 69.8875 44.8709C70.3406 44.4786 70.5671 43.9328 70.5671 43.2335V39.7029C70.5671 39.0036 70.3406 38.4664 69.8875 38.0911C69.4505 37.6988 68.8517 37.5027 68.0911 37.5027H65.8821V45.4338H68.0911Z"/>
</mask>
<path d="M22.2763 19.338C22.4544 19.338 22.6081 19.4062 22.7376 19.5426C22.867 19.6791 22.9318 19.8411 22.9318 20.0287V23.8919C22.9318 24.0795 22.867 24.2416 22.7376 24.378C22.6081 24.5145 22.4544 24.5827 22.2763 24.5827H7.61428C7.43627 24.5827 7.28253 24.5145 7.15306 24.378C7.02359 24.2416 6.95886 24.0795 6.95886 23.8919V20.0287C6.95886 19.8411 7.02359 19.6791 7.15306 19.5426C7.28253 19.4062 7.43627 19.338 7.61428 19.338H12.1051V13.1978L9.65338 14.9119C9.52391 14.9972 9.40254 15.0398 9.28925 15.0398C9.07887 15.0398 8.89276 14.929 8.73093 14.7072L6.76466 11.4836C6.71611 11.3813 6.69184 11.2619 6.69184 11.1254C6.69184 10.8526 6.78894 10.6393 6.98314 10.4858L12.3722 6.77615C12.4855 6.70792 12.6149 6.67381 12.7606 6.67381H17.7612C17.9392 6.67381 18.093 6.74203 18.2224 6.87848C18.3519 7.01493 18.4166 7.17696 18.4166 7.36458V19.338H22.2763Z" fill="#EDE3D7"/>
<path d="M40.2789 17.9564C40.2789 20.2249 39.5263 21.939 38.0213 23.0988C36.5324 24.2586 34.5743 24.8385 32.1468 24.8385C29.7031 24.8385 27.7368 24.2586 26.2479 23.0988C24.7591 21.939 24.0147 20.2078 24.0147 17.9052V13.3513C24.0147 11.8162 24.3788 10.5285 25.107 9.48806C25.8353 8.44764 26.8063 7.68012 28.02 7.18549C29.25 6.67381 30.6255 6.41797 32.1468 6.41797C33.668 6.41797 35.0355 6.67381 36.2492 7.18549C37.4791 7.68012 38.4582 8.44764 39.1865 9.48806C39.9147 10.5114 40.2789 11.7821 40.2789 13.3001V17.9564ZM30.5689 18.1611C30.5689 18.6387 30.7226 19.0395 31.0301 19.3635C31.3376 19.6705 31.7098 19.8241 32.1468 19.8241C32.5837 19.8241 32.9559 19.662 33.2634 19.338C33.5709 19.0139 33.7246 18.6216 33.7246 18.1611V13.0443C33.7246 12.5667 33.5709 12.1744 33.2634 11.8674C32.9721 11.5433 32.5999 11.3813 32.1468 11.3813C31.6936 11.3813 31.3133 11.5433 31.0058 11.8674C30.7145 12.1915 30.5689 12.5837 30.5689 13.0443V18.1611Z" fill="#EDE3D7"/>
<path d="M58.2328 6.67381C58.4108 6.67381 58.5646 6.74203 58.694 6.87848C58.8235 7.01493 58.8882 7.17696 58.8882 7.36458V11.4836C58.8882 11.6712 58.8235 11.8333 58.694 11.9697C58.5646 12.1062 58.4108 12.1744 58.2328 12.1744H53.0137V23.8919C53.0137 24.0795 52.949 24.2416 52.8195 24.378C52.69 24.5145 52.5363 24.5827 52.3583 24.5827H47.3577C47.1796 24.5827 47.0259 24.5145 46.8964 24.378C46.767 24.2416 46.7022 24.0795 46.7022 23.8919V12.1744H41.4831C41.3051 12.1744 41.1514 12.1062 41.0219 11.9697C40.8924 11.8333 40.8277 11.6712 40.8277 11.4836V7.36458C40.8277 7.17696 40.8924 7.01493 41.0219 6.87848C41.1514 6.74203 41.3051 6.67381 41.4831 6.67381H58.2328Z" fill="#EDE3D7"/>
<path d="M75.6527 6.67381C75.8308 6.67381 75.9845 6.74203 76.114 6.87848C76.2434 7.01493 76.3082 7.17696 76.3082 7.36458V23.8919C76.3082 24.0795 76.2434 24.2416 76.114 24.378C75.9845 24.5145 75.8308 24.5827 75.6527 24.5827H70.6521C70.4741 24.5827 70.3204 24.5145 70.1909 24.378C70.0614 24.2416 69.9967 24.0795 69.9967 23.8919V18.4425H65.1417V23.8919C65.1417 24.0795 65.077 24.2416 64.9475 24.378C64.818 24.5145 64.6643 24.5827 64.4863 24.5827H59.4856C59.3076 24.5827 59.1539 24.523 59.0244 24.4036C58.8949 24.2672 58.8302 24.0966 58.8302 23.8919V7.36458C58.8302 7.17696 58.8949 7.01493 59.0244 6.87848C59.1539 6.74203 59.3076 6.67381 59.4856 6.67381H64.4863C64.6643 6.67381 64.818 6.74203 64.9475 6.87848C65.077 7.01493 65.1417 7.17696 65.1417 7.36458V12.6093H69.9967V7.36458C69.9967 7.17696 70.0614 7.01493 70.1909 6.87848C70.3204 6.74203 70.4741 6.67381 70.6521 6.67381H75.6527Z" fill="#EDE3D7"/>
<path d="M23.6479 39.6262C23.8259 39.6262 23.9796 39.6944 24.1091 39.8308C24.2386 39.9673 24.3033 40.1293 24.3033 40.3169V43.0289C24.3033 45.6214 23.4618 47.5487 21.7787 48.8109C20.1118 50.056 17.9028 50.6785 15.1516 50.6785C12.4005 50.6785 10.1834 50.056 8.50032 48.8109C6.83344 47.5487 6 45.6043 6 42.9777V39.9588C6 38.219 6.40458 36.7778 7.21375 35.635C8.02291 34.4752 9.11528 33.6224 10.4909 33.0766C11.8664 32.5308 13.42 32.2579 15.1516 32.2579C17.2231 32.2579 18.9304 32.6161 20.2737 33.3325C21.6169 34.0488 22.5879 34.859 23.1867 35.763C23.8016 36.6669 24.1091 37.4003 24.1091 37.9632C24.1091 38.1167 24.0525 38.2532 23.9392 38.3725C23.8421 38.4749 23.7207 38.5261 23.5751 38.5261H18.0889C17.7653 38.5261 17.5306 38.4322 17.3849 38.2446C16.8833 37.5794 16.1388 37.2468 15.1516 37.2468C14.4072 37.2468 13.7842 37.4259 13.2825 37.7841C12.797 38.1423 12.5542 38.6028 12.5542 39.1657V43.515C12.5542 44.1972 12.797 44.7345 13.2825 45.1268C13.768 45.502 14.391 45.6896 15.1516 45.6896C16.155 45.6896 16.8914 45.5105 17.3607 45.1523C17.8462 44.7771 18.097 44.3422 18.1132 43.8475H16.6081C16.4301 43.8475 16.2764 43.7793 16.1469 43.6429C16.0175 43.5064 15.9527 43.3444 15.9527 43.1568V40.3169C15.9527 40.1293 16.0175 39.9673 16.1469 39.8308C16.2764 39.6944 16.4301 39.6262 16.6081 39.6262H23.6479Z" fill="#EDE3D7"/>
<path d="M42.2573 49.6296C42.2896 49.6978 42.3058 49.7745 42.3058 49.8598C42.3058 50.0133 42.2492 50.1498 42.1359 50.2692C42.0388 50.3715 41.9174 50.4227 41.7718 50.4227H36.2614C36.0348 50.4227 35.8244 50.363 35.6302 50.2436C35.4522 50.1242 35.3227 49.9707 35.2418 49.7831L33.1056 44.7174H31.0665V49.7319C31.0665 49.9195 31.0018 50.0816 30.8723 50.218C30.7429 50.3545 30.5891 50.4227 30.4111 50.4227H25.1677C24.9897 50.4227 24.836 50.3545 24.7065 50.218C24.577 50.0816 24.5123 49.9195 24.5123 49.7319V33.2046C24.5123 33.0169 24.577 32.8549 24.7065 32.7185C24.836 32.582 24.9897 32.5138 25.1677 32.5138H34.6107C36.0672 32.5138 37.3375 32.7611 38.4218 33.2557C39.5223 33.7503 40.3638 34.4667 40.9464 35.4048C41.529 36.3429 41.8203 37.443 41.8203 38.7051C41.8203 41.0248 40.9707 42.7048 39.2715 43.7452L42.2573 49.6296ZM34.1009 39.9843C34.4569 39.9843 34.732 39.865 34.9262 39.6262C35.1204 39.3703 35.2175 39.0548 35.2175 38.6796C35.2175 38.3043 35.1204 37.9803 34.9262 37.7074C34.7482 37.4174 34.4731 37.2724 34.1009 37.2724H31.0665V39.9843H34.1009Z" fill="#EDE3D7"/>
<path d="M53.6327 45.1779H58.0265C58.2045 45.1779 58.3582 45.2461 58.4877 45.3826C58.6172 45.519 58.6819 45.6811 58.6819 45.8687V49.7319C58.6819 49.9195 58.6172 50.0816 58.4877 50.218C58.3582 50.3545 58.2045 50.4227 58.0265 50.4227H42.6362C42.4582 50.4227 42.3044 50.3545 42.175 50.218C42.0455 50.0816 41.9808 49.9195 41.9808 49.7319V45.8687C41.9808 45.6811 42.0455 45.519 42.175 45.3826C42.3044 45.2461 42.4582 45.1779 42.6362 45.1779H47.0785V37.7585H42.6362C42.4582 37.7585 42.3044 37.6903 42.175 37.5539C42.0455 37.4174 41.9808 37.2554 41.9808 37.0678V33.2046C41.9808 33.0169 42.0455 32.8549 42.175 32.7185C42.3044 32.582 42.4582 32.5138 42.6362 32.5138H58.0265C58.2045 32.5138 58.3582 32.582 58.4877 32.7185C58.6172 32.8549 58.6819 33.0169 58.6819 33.2046V37.0678C58.6819 37.2554 58.6172 37.4174 58.4877 37.5539C58.3582 37.6903 58.2045 37.7585 58.0265 37.7585H53.6327V45.1779Z" fill="#EDE3D7"/>
<path d="M67.9697 32.5138C70.7047 32.5138 72.8894 33.1363 74.524 34.3814C76.1747 35.6265 77 37.5539 77 40.1634V42.773C77 45.4338 76.1827 47.3782 74.5482 48.6062C72.9299 49.8172 70.7371 50.4227 67.9697 50.4227H60.226C60.048 50.4227 59.8943 50.3545 59.7648 50.218C59.6353 50.0816 59.5706 49.9195 59.5706 49.7319V33.2046C59.5706 33.0169 59.6353 32.8549 59.7648 32.7185C59.8943 32.582 60.048 32.5138 60.226 32.5138H67.9697ZM68.0911 45.4338C68.8517 45.4338 69.4505 45.2461 69.8875 44.8709C70.3406 44.4786 70.5671 43.9328 70.5671 43.2335V39.7029C70.5671 39.0036 70.3406 38.4664 69.8875 38.0911C69.4505 37.6988 68.8517 37.5027 68.0911 37.5027H65.8821V45.4338H68.0911Z" fill="#EDE3D7"/>
<path d="M22.2763 19.338C22.4544 19.338 22.6081 19.4062 22.7376 19.5426C22.867 19.6791 22.9318 19.8411 22.9318 20.0287V23.8919C22.9318 24.0795 22.867 24.2416 22.7376 24.378C22.6081 24.5145 22.4544 24.5827 22.2763 24.5827H7.61428C7.43627 24.5827 7.28253 24.5145 7.15306 24.378C7.02359 24.2416 6.95886 24.0795 6.95886 23.8919V20.0287C6.95886 19.8411 7.02359 19.6791 7.15306 19.5426C7.28253 19.4062 7.43627 19.338 7.61428 19.338H12.1051V13.1978L9.65338 14.9119C9.52391 14.9972 9.40254 15.0398 9.28925 15.0398C9.07887 15.0398 8.89276 14.929 8.73093 14.7072L6.76466 11.4836C6.71611 11.3813 6.69184 11.2619 6.69184 11.1254C6.69184 10.8526 6.78894 10.6393 6.98314 10.4858L12.3722 6.77615C12.4855 6.70792 12.6149 6.67381 12.7606 6.67381H17.7612C17.9392 6.67381 18.093 6.74203 18.2224 6.87848C18.3519 7.01493 18.4166 7.17696 18.4166 7.36458V19.338H22.2763Z" stroke="#EDE3D7" stroke-width="12" mask="url(#path-1-outside-1_103_67)"/>
<path d="M40.2789 17.9564C40.2789 20.2249 39.5263 21.939 38.0213 23.0988C36.5324 24.2586 34.5743 24.8385 32.1468 24.8385C29.7031 24.8385 27.7368 24.2586 26.2479 23.0988C24.7591 21.939 24.0147 20.2078 24.0147 17.9052V13.3513C24.0147 11.8162 24.3788 10.5285 25.107 9.48806C25.8353 8.44764 26.8063 7.68012 28.02 7.18549C29.25 6.67381 30.6255 6.41797 32.1468 6.41797C33.668 6.41797 35.0355 6.67381 36.2492 7.18549C37.4791 7.68012 38.4582 8.44764 39.1865 9.48806C39.9147 10.5114 40.2789 11.7821 40.2789 13.3001V17.9564ZM30.5689 18.1611C30.5689 18.6387 30.7226 19.0395 31.0301 19.3635C31.3376 19.6705 31.7098 19.8241 32.1468 19.8241C32.5837 19.8241 32.9559 19.662 33.2634 19.338C33.5709 19.0139 33.7246 18.6216 33.7246 18.1611V13.0443C33.7246 12.5667 33.5709 12.1744 33.2634 11.8674C32.9721 11.5433 32.5999 11.3813 32.1468 11.3813C31.6936 11.3813 31.3133 11.5433 31.0058 11.8674C30.7145 12.1915 30.5689 12.5837 30.5689 13.0443V18.1611Z" stroke="#EDE3D7" stroke-width="12" mask="url(#path-1-outside-1_103_67)"/>
<path d="M58.2328 6.67381C58.4108 6.67381 58.5646 6.74203 58.694 6.87848C58.8235 7.01493 58.8882 7.17696 58.8882 7.36458V11.4836C58.8882 11.6712 58.8235 11.8333 58.694 11.9697C58.5646 12.1062 58.4108 12.1744 58.2328 12.1744H53.0137V23.8919C53.0137 24.0795 52.949 24.2416 52.8195 24.378C52.69 24.5145 52.5363 24.5827 52.3583 24.5827H47.3577C47.1796 24.5827 47.0259 24.5145 46.8964 24.378C46.767 24.2416 46.7022 24.0795 46.7022 23.8919V12.1744H41.4831C41.3051 12.1744 41.1514 12.1062 41.0219 11.9697C40.8924 11.8333 40.8277 11.6712 40.8277 11.4836V7.36458C40.8277 7.17696 40.8924 7.01493 41.0219 6.87848C41.1514 6.74203 41.3051 6.67381 41.4831 6.67381H58.2328Z" stroke="#EDE3D7" stroke-width="12" mask="url(#path-1-outside-1_103_67)"/>
<path d="M75.6527 6.67381C75.8308 6.67381 75.9845 6.74203 76.114 6.87848C76.2434 7.01493 76.3082 7.17696 76.3082 7.36458V23.8919C76.3082 24.0795 76.2434 24.2416 76.114 24.378C75.9845 24.5145 75.8308 24.5827 75.6527 24.5827H70.6521C70.4741 24.5827 70.3204 24.5145 70.1909 24.378C70.0614 24.2416 69.9967 24.0795 69.9967 23.8919V18.4425H65.1417V23.8919C65.1417 24.0795 65.077 24.2416 64.9475 24.378C64.818 24.5145 64.6643 24.5827 64.4863 24.5827H59.4856C59.3076 24.5827 59.1539 24.523 59.0244 24.4036C58.8949 24.2672 58.8302 24.0966 58.8302 23.8919V7.36458C58.8302 7.17696 58.8949 7.01493 59.0244 6.87848C59.1539 6.74203 59.3076 6.67381 59.4856 6.67381H64.4863C64.6643 6.67381 64.818 6.74203 64.9475 6.87848C65.077 7.01493 65.1417 7.17696 65.1417 7.36458V12.6093H69.9967V7.36458C69.9967 7.17696 70.0614 7.01493 70.1909 6.87848C70.3204 6.74203 70.4741 6.67381 70.6521 6.67381H75.6527Z" stroke="#EDE3D7" stroke-width="12" mask="url(#path-1-outside-1_103_67)"/>
<path d="M23.6479 39.6262C23.8259 39.6262 23.9796 39.6944 24.1091 39.8308C24.2386 39.9673 24.3033 40.1293 24.3033 40.3169V43.0289C24.3033 45.6214 23.4618 47.5487 21.7787 48.8109C20.1118 50.056 17.9028 50.6785 15.1516 50.6785C12.4005 50.6785 10.1834 50.056 8.50032 48.8109C6.83344 47.5487 6 45.6043 6 42.9777V39.9588C6 38.219 6.40458 36.7778 7.21375 35.635C8.02291 34.4752 9.11528 33.6224 10.4909 33.0766C11.8664 32.5308 13.42 32.2579 15.1516 32.2579C17.2231 32.2579 18.9304 32.6161 20.2737 33.3325C21.6169 34.0488 22.5879 34.859 23.1867 35.763C23.8016 36.6669 24.1091 37.4003 24.1091 37.9632C24.1091 38.1167 24.0525 38.2532 23.9392 38.3725C23.8421 38.4749 23.7207 38.5261 23.5751 38.5261H18.0889C17.7653 38.5261 17.5306 38.4322 17.3849 38.2446C16.8833 37.5794 16.1388 37.2468 15.1516 37.2468C14.4072 37.2468 13.7842 37.4259 13.2825 37.7841C12.797 38.1423 12.5542 38.6028 12.5542 39.1657V43.515C12.5542 44.1972 12.797 44.7345 13.2825 45.1268C13.768 45.502 14.391 45.6896 15.1516 45.6896C16.155 45.6896 16.8914 45.5105 17.3607 45.1523C17.8462 44.7771 18.097 44.3422 18.1132 43.8475H16.6081C16.4301 43.8475 16.2764 43.7793 16.1469 43.6429C16.0175 43.5064 15.9527 43.3444 15.9527 43.1568V40.3169C15.9527 40.1293 16.0175 39.9673 16.1469 39.8308C16.2764 39.6944 16.4301 39.6262 16.6081 39.6262H23.6479Z" stroke="#EDE3D7" stroke-width="12" mask="url(#path-1-outside-1_103_67)"/>
<path d="M42.2573 49.6296C42.2896 49.6978 42.3058 49.7745 42.3058 49.8598C42.3058 50.0133 42.2492 50.1498 42.1359 50.2692C42.0388 50.3715 41.9174 50.4227 41.7718 50.4227H36.2614C36.0348 50.4227 35.8244 50.363 35.6302 50.2436C35.4522 50.1242 35.3227 49.9707 35.2418 49.7831L33.1056 44.7174H31.0665V49.7319C31.0665 49.9195 31.0018 50.0816 30.8723 50.218C30.7429 50.3545 30.5891 50.4227 30.4111 50.4227H25.1677C24.9897 50.4227 24.836 50.3545 24.7065 50.218C24.577 50.0816 24.5123 49.9195 24.5123 49.7319V33.2046C24.5123 33.0169 24.577 32.8549 24.7065 32.7185C24.836 32.582 24.9897 32.5138 25.1677 32.5138H34.6107C36.0672 32.5138 37.3375 32.7611 38.4218 33.2557C39.5223 33.7503 40.3638 34.4667 40.9464 35.4048C41.529 36.3429 41.8203 37.443 41.8203 38.7051C41.8203 41.0248 40.9707 42.7048 39.2715 43.7452L42.2573 49.6296ZM34.1009 39.9843C34.4569 39.9843 34.732 39.865 34.9262 39.6262C35.1204 39.3703 35.2175 39.0548 35.2175 38.6796C35.2175 38.3043 35.1204 37.9803 34.9262 37.7074C34.7482 37.4174 34.4731 37.2724 34.1009 37.2724H31.0665V39.9843H34.1009Z" stroke="#EDE3D7" stroke-width="12" mask="url(#path-1-outside-1_103_67)"/>
<path d="M53.6327 45.1779H58.0265C58.2045 45.1779 58.3582 45.2461 58.4877 45.3826C58.6172 45.519 58.6819 45.6811 58.6819 45.8687V49.7319C58.6819 49.9195 58.6172 50.0816 58.4877 50.218C58.3582 50.3545 58.2045 50.4227 58.0265 50.4227H42.6362C42.4582 50.4227 42.3044 50.3545 42.175 50.218C42.0455 50.0816 41.9808 49.9195 41.9808 49.7319V45.8687C41.9808 45.6811 42.0455 45.519 42.175 45.3826C42.3044 45.2461 42.4582 45.1779 42.6362 45.1779H47.0785V37.7585H42.6362C42.4582 37.7585 42.3044 37.6903 42.175 37.5539C42.0455 37.4174 41.9808 37.2554 41.9808 37.0678V33.2046C41.9808 33.0169 42.0455 32.8549 42.175 32.7185C42.3044 32.582 42.4582 32.5138 42.6362 32.5138H58.0265C58.2045 32.5138 58.3582 32.582 58.4877 32.7185C58.6172 32.8549 58.6819 33.0169 58.6819 33.2046V37.0678C58.6819 37.2554 58.6172 37.4174 58.4877 37.5539C58.3582 37.6903 58.2045 37.7585 58.0265 37.7585H53.6327V45.1779Z" stroke="#EDE3D7" stroke-width="12" mask="url(#path-1-outside-1_103_67)"/>
<path d="M67.9697 32.5138C70.7047 32.5138 72.8894 33.1363 74.524 34.3814C76.1747 35.6265 77 37.5539 77 40.1634V42.773C77 45.4338 76.1827 47.3782 74.5482 48.6062C72.9299 49.8172 70.7371 50.4227 67.9697 50.4227H60.226C60.048 50.4227 59.8943 50.3545 59.7648 50.218C59.6353 50.0816 59.5706 49.9195 59.5706 49.7319V33.2046C59.5706 33.0169 59.6353 32.8549 59.7648 32.7185C59.8943 32.582 60.048 32.5138 60.226 32.5138H67.9697ZM68.0911 45.4338C68.8517 45.4338 69.4505 45.2461 69.8875 44.8709C70.3406 44.4786 70.5671 43.9328 70.5671 43.2335V39.7029C70.5671 39.0036 70.3406 38.4664 69.8875 38.0911C69.4505 37.6988 68.8517 37.5027 68.0911 37.5027H65.8821V45.4338H68.0911Z" stroke="#EDE3D7" stroke-width="12" mask="url(#path-1-outside-1_103_67)"/>
<mask id="path-2-outside-2_103_67" maskUnits="userSpaceOnUse" x="0" y="0" width="83" height="58" fill="black">
<rect fill="white" width="83" height="58"/>
<path d="M22.2763 19.4277C22.4544 19.4277 22.6081 19.4987 22.7376 19.6405C22.867 19.7823 22.9318 19.9507 22.9318 20.1457V24.1607C22.9318 24.3557 22.867 24.5241 22.7376 24.6659C22.6081 24.8077 22.4544 24.8786 22.2763 24.8786H7.61428C7.43627 24.8786 7.28253 24.8077 7.15306 24.6659C7.02359 24.5241 6.95886 24.3557 6.95886 24.1607V20.1457C6.95886 19.9507 7.02359 19.7823 7.15306 19.6405C7.28253 19.4987 7.43627 19.4277 7.61428 19.4277H12.1051V13.0462L9.65338 14.8277C9.52391 14.9164 9.40254 14.9607 9.28925 14.9607C9.07887 14.9607 8.89276 14.8455 8.73093 14.615L6.76466 11.2647C6.71611 11.1584 6.69184 11.0343 6.69184 10.8925C6.69184 10.6089 6.78894 10.3873 6.98314 10.2277L12.3722 6.37225C12.4855 6.30135 12.6149 6.2659 12.7606 6.2659H17.7612C17.9392 6.2659 18.093 6.3368 18.2224 6.47861C18.3519 6.62042 18.4166 6.78883 18.4166 6.98382V19.4277H22.2763Z"/>
<path d="M40.2789 17.9919C40.2789 20.3495 39.5263 22.131 38.0213 23.3364C36.5324 24.5418 34.5743 25.1445 32.1468 25.1445C29.7031 25.1445 27.7368 24.5418 26.2479 23.3364C24.7591 22.131 24.0147 20.3318 24.0147 17.9387V13.2058C24.0147 11.6104 24.3788 10.2721 25.107 9.19075C25.8353 8.10944 26.8063 7.31175 28.02 6.79769C29.2499 6.2659 30.6255 6 32.1468 6C33.668 6 35.0355 6.2659 36.2492 6.79769C37.4792 7.31175 38.4582 8.10944 39.1865 9.19075C39.9147 10.2543 40.2789 11.575 40.2789 13.1526V17.9919ZM30.5689 18.2046C30.5689 18.701 30.7226 19.1175 31.0301 19.4543C31.3376 19.7734 31.7098 19.9329 32.1468 19.9329C32.5837 19.9329 32.9559 19.7645 33.2634 19.4277C33.5709 19.0909 33.7246 18.6832 33.7246 18.2046V12.8867C33.7246 12.3904 33.5709 11.9827 33.2634 11.6636C32.9721 11.3268 32.5999 11.1584 32.1468 11.1584C31.6936 11.1584 31.3133 11.3268 31.0058 11.6636C30.7145 12.0004 30.5689 12.4081 30.5689 12.8867V18.2046Z"/>
<path d="M58.2328 6.2659C58.4108 6.2659 58.5646 6.3368 58.694 6.47861C58.8235 6.62042 58.8882 6.78883 58.8882 6.98382V11.2647C58.8882 11.4597 58.8235 11.6281 58.694 11.7699C58.5646 11.9118 58.4108 11.9827 58.2328 11.9827H53.0137V24.1607C53.0137 24.3557 52.949 24.5241 52.8195 24.6659C52.69 24.8077 52.5363 24.8786 52.3583 24.8786H47.3577C47.1796 24.8786 47.0259 24.8077 46.8964 24.6659C46.767 24.5241 46.7022 24.3557 46.7022 24.1607V11.9827H41.4831C41.3051 11.9827 41.1514 11.9118 41.0219 11.7699C40.8924 11.6281 40.8277 11.4597 40.8277 11.2647V6.98382C40.8277 6.78883 40.8924 6.62042 41.0219 6.47861C41.1514 6.3368 41.3051 6.2659 41.4831 6.2659H58.2328Z"/>
<path d="M75.6527 6.2659C75.8308 6.2659 75.9845 6.3368 76.114 6.47861C76.2434 6.62042 76.3082 6.78883 76.3082 6.98382V24.1607C76.3082 24.3557 76.2434 24.5241 76.114 24.6659C75.9845 24.8077 75.8308 24.8786 75.6527 24.8786H70.6521C70.4741 24.8786 70.3204 24.8077 70.1909 24.6659C70.0614 24.5241 69.9967 24.3557 69.9967 24.1607V18.4971H65.1417V24.1607C65.1417 24.3557 65.077 24.5241 64.9475 24.6659C64.818 24.8077 64.6643 24.8786 64.4863 24.8786H59.4856C59.3076 24.8786 59.1539 24.8166 59.0244 24.6925C58.8949 24.5507 58.8302 24.3734 58.8302 24.1607V6.98382C58.8302 6.78883 58.8949 6.62042 59.0244 6.47861C59.1539 6.3368 59.3076 6.2659 59.4856 6.2659H64.4863C64.6643 6.2659 64.818 6.3368 64.9475 6.47861C65.077 6.62042 65.1417 6.78883 65.1417 6.98382V12.4347H69.9967V6.98382C69.9967 6.78883 70.0614 6.62042 70.1909 6.47861C70.3204 6.3368 70.4741 6.2659 70.6521 6.2659H75.6527Z"/>
<path d="M23.6479 40.5133C23.8259 40.5133 23.9796 40.5842 24.1091 40.726C24.2386 40.8678 24.3033 41.0362 24.3033 41.2312V44.0497C24.3033 46.7441 23.4618 48.7472 21.7787 50.059C20.1118 51.353 17.9028 52 15.1516 52C12.4005 52 10.1834 51.353 8.50032 50.059C6.83344 48.7472 6 46.7264 6 43.9965V40.859C6 39.0509 6.40458 37.553 7.21375 36.3653C8.02291 35.1599 9.11528 34.2736 10.4909 33.7064C11.8664 33.1391 13.42 32.8555 15.1516 32.8555C17.2231 32.8555 18.9304 33.2277 20.2737 33.9723C21.6169 34.7168 22.5879 35.5588 23.1867 36.4983C23.8016 37.4378 24.1091 38.2 24.1091 38.785C24.1091 38.9445 24.0525 39.0863 23.9392 39.2104C23.8421 39.3168 23.7207 39.3699 23.5751 39.3699H18.0889C17.7653 39.3699 17.5306 39.2724 17.3849 39.0775C16.8833 38.3861 16.1388 38.0405 15.1516 38.0405C14.4072 38.0405 13.7842 38.2266 13.2825 38.5988C12.797 38.9711 12.5542 39.4497 12.5542 40.0347V44.5549C12.5542 45.264 12.797 45.8224 13.2825 46.2301C13.768 46.62 14.391 46.815 15.1516 46.815C16.155 46.815 16.8914 46.6289 17.3607 46.2566C17.8462 45.8667 18.097 45.4146 18.1132 44.9006H16.6081C16.4301 44.9006 16.2764 44.8297 16.1469 44.6879C16.0175 44.5461 15.9527 44.3777 15.9527 44.1827V41.2312C15.9527 41.0362 16.0175 40.8678 16.1469 40.726C16.2764 40.5842 16.4301 40.5133 16.6081 40.5133H23.6479Z"/>
<path d="M42.2573 50.9098C42.2896 50.9807 42.3058 51.0605 42.3058 51.1491C42.3058 51.3087 42.2492 51.4505 42.1359 51.5746C42.0388 51.6809 41.9174 51.7341 41.7718 51.7341H36.2614C36.0348 51.7341 35.8244 51.6721 35.6302 51.548C35.4522 51.4239 35.3227 51.2644 35.2418 51.0694L33.1056 45.8046H31.0665V51.0162C31.0665 51.2112 31.0018 51.3796 30.8723 51.5214C30.7429 51.6632 30.5891 51.7341 30.4111 51.7341H25.1677C24.9897 51.7341 24.836 51.6632 24.7065 51.5214C24.577 51.3796 24.5123 51.2112 24.5123 51.0162V33.8393C24.5123 33.6443 24.577 33.4759 24.7065 33.3341C24.836 33.1923 24.9897 33.1214 25.1677 33.1214H34.6107C36.0672 33.1214 37.3375 33.3784 38.4218 33.8925C39.5223 34.4066 40.3638 35.1511 40.9464 36.126C41.529 37.101 41.8203 38.2443 41.8203 39.5561C41.8203 41.9669 40.9707 43.7129 39.2715 44.7942L42.2573 50.9098ZM34.1009 40.8855C34.4569 40.8855 34.732 40.7615 34.9262 40.5133C35.1204 40.2474 35.2175 39.9195 35.2175 39.5295C35.2175 39.1395 35.1204 38.8027 34.9262 38.5191C34.7482 38.2177 34.4731 38.0671 34.1009 38.0671H31.0665V40.8855H34.1009Z"/>
<path d="M53.6327 46.2832H58.0265C58.2045 46.2832 58.3582 46.3541 58.4877 46.496C58.6172 46.6378 58.6819 46.8062 58.6819 47.0012V51.0162C58.6819 51.2112 58.6172 51.3796 58.4877 51.5214C58.3582 51.6632 58.2045 51.7341 58.0265 51.7341H42.6362C42.4582 51.7341 42.3044 51.6632 42.175 51.5214C42.0455 51.3796 41.9808 51.2112 41.9808 51.0162V47.0012C41.9808 46.8062 42.0455 46.6378 42.175 46.496C42.3044 46.3541 42.4582 46.2832 42.6362 46.2832H47.0785V38.5723H42.6362C42.4582 38.5723 42.3044 38.5014 42.175 38.3595C42.0455 38.2177 41.9808 38.0493 41.9808 37.8543V33.8393C41.9808 33.6443 42.0455 33.4759 42.175 33.3341C42.3044 33.1923 42.4582 33.1214 42.6362 33.1214H58.0265C58.2045 33.1214 58.3582 33.1923 58.4877 33.3341C58.6172 33.4759 58.6819 33.6443 58.6819 33.8393V37.8543C58.6819 38.0493 58.6172 38.2177 58.4877 38.3595C58.3582 38.5014 58.2045 38.5723 58.0265 38.5723H53.6327V46.2832Z"/>
<path d="M67.9697 33.1214C70.7047 33.1214 72.8894 33.7684 74.524 35.0624C76.1747 36.3565 77 38.3595 77 41.0717V43.7838C77 46.5491 76.1827 48.5699 74.5482 49.8462C72.9299 51.1048 70.7371 51.7341 67.9697 51.7341H60.226C60.048 51.7341 59.8943 51.6632 59.7648 51.5214C59.6353 51.3796 59.5706 51.2112 59.5706 51.0162V33.8393C59.5706 33.6443 59.6353 33.4759 59.7648 33.3341C59.8943 33.1923 60.048 33.1214 60.226 33.1214H67.9697ZM68.0911 46.5491C68.8517 46.5491 69.4505 46.3541 69.8874 45.9642C70.3406 45.5565 70.5671 44.9892 70.5671 44.2624V40.5931C70.5671 39.8663 70.3406 39.3079 69.8874 38.9179C69.4505 38.5102 68.8517 38.3064 68.0911 38.3064H65.8821V46.5491H68.0911Z"/>
</mask>
<path d="M22.2763 19.4277C22.4544 19.4277 22.6081 19.4987 22.7376 19.6405C22.867 19.7823 22.9318 19.9507 22.9318 20.1457V24.1607C22.9318 24.3557 22.867 24.5241 22.7376 24.6659C22.6081 24.8077 22.4544 24.8786 22.2763 24.8786H7.61428C7.43627 24.8786 7.28253 24.8077 7.15306 24.6659C7.02359 24.5241 6.95886 24.3557 6.95886 24.1607V20.1457C6.95886 19.9507 7.02359 19.7823 7.15306 19.6405C7.28253 19.4987 7.43627 19.4277 7.61428 19.4277H12.1051V13.0462L9.65338 14.8277C9.52391 14.9164 9.40254 14.9607 9.28925 14.9607C9.07887 14.9607 8.89276 14.8455 8.73093 14.615L6.76466 11.2647C6.71611 11.1584 6.69184 11.0343 6.69184 10.8925C6.69184 10.6089 6.78894 10.3873 6.98314 10.2277L12.3722 6.37225C12.4855 6.30135 12.6149 6.2659 12.7606 6.2659H17.7612C17.9392 6.2659 18.093 6.3368 18.2224 6.47861C18.3519 6.62042 18.4166 6.78883 18.4166 6.98382V19.4277H22.2763Z" fill="#231F20"/>
<path d="M40.2789 17.9919C40.2789 20.3495 39.5263 22.131 38.0213 23.3364C36.5324 24.5418 34.5743 25.1445 32.1468 25.1445C29.7031 25.1445 27.7368 24.5418 26.2479 23.3364C24.7591 22.131 24.0147 20.3318 24.0147 17.9387V13.2058C24.0147 11.6104 24.3788 10.2721 25.107 9.19075C25.8353 8.10944 26.8063 7.31175 28.02 6.79769C29.2499 6.2659 30.6255 6 32.1468 6C33.668 6 35.0355 6.2659 36.2492 6.79769C37.4792 7.31175 38.4582 8.10944 39.1865 9.19075C39.9147 10.2543 40.2789 11.575 40.2789 13.1526V17.9919ZM30.5689 18.2046C30.5689 18.701 30.7226 19.1175 31.0301 19.4543C31.3376 19.7734 31.7098 19.9329 32.1468 19.9329C32.5837 19.9329 32.9559 19.7645 33.2634 19.4277C33.5709 19.0909 33.7246 18.6832 33.7246 18.2046V12.8867C33.7246 12.3904 33.5709 11.9827 33.2634 11.6636C32.9721 11.3268 32.5999 11.1584 32.1468 11.1584C31.6936 11.1584 31.3133 11.3268 31.0058 11.6636C30.7145 12.0004 30.5689 12.4081 30.5689 12.8867V18.2046Z" fill="#231F20"/>
<path d="M58.2328 6.2659C58.4108 6.2659 58.5646 6.3368 58.694 6.47861C58.8235 6.62042 58.8882 6.78883 58.8882 6.98382V11.2647C58.8882 11.4597 58.8235 11.6281 58.694 11.7699C58.5646 11.9118 58.4108 11.9827 58.2328 11.9827H53.0137V24.1607C53.0137 24.3557 52.949 24.5241 52.8195 24.6659C52.69 24.8077 52.5363 24.8786 52.3583 24.8786H47.3577C47.1796 24.8786 47.0259 24.8077 46.8964 24.6659C46.767 24.5241 46.7022 24.3557 46.7022 24.1607V11.9827H41.4831C41.3051 11.9827 41.1514 11.9118 41.0219 11.7699C40.8924 11.6281 40.8277 11.4597 40.8277 11.2647V6.98382C40.8277 6.78883 40.8924 6.62042 41.0219 6.47861C41.1514 6.3368 41.3051 6.2659 41.4831 6.2659H58.2328Z" fill="#231F20"/>
<path d="M75.6527 6.2659C75.8308 6.2659 75.9845 6.3368 76.114 6.47861C76.2434 6.62042 76.3082 6.78883 76.3082 6.98382V24.1607C76.3082 24.3557 76.2434 24.5241 76.114 24.6659C75.9845 24.8077 75.8308 24.8786 75.6527 24.8786H70.6521C70.4741 24.8786 70.3204 24.8077 70.1909 24.6659C70.0614 24.5241 69.9967 24.3557 69.9967 24.1607V18.4971H65.1417V24.1607C65.1417 24.3557 65.077 24.5241 64.9475 24.6659C64.818 24.8077 64.6643 24.8786 64.4863 24.8786H59.4856C59.3076 24.8786 59.1539 24.8166 59.0244 24.6925C58.8949 24.5507 58.8302 24.3734 58.8302 24.1607V6.98382C58.8302 6.78883 58.8949 6.62042 59.0244 6.47861C59.1539 6.3368 59.3076 6.2659 59.4856 6.2659H64.4863C64.6643 6.2659 64.818 6.3368 64.9475 6.47861C65.077 6.62042 65.1417 6.78883 65.1417 6.98382V12.4347H69.9967V6.98382C69.9967 6.78883 70.0614 6.62042 70.1909 6.47861C70.3204 6.3368 70.4741 6.2659 70.6521 6.2659H75.6527Z" fill="#231F20"/>
<path d="M23.6479 40.5133C23.8259 40.5133 23.9796 40.5842 24.1091 40.726C24.2386 40.8678 24.3033 41.0362 24.3033 41.2312V44.0497C24.3033 46.7441 23.4618 48.7472 21.7787 50.059C20.1118 51.353 17.9028 52 15.1516 52C12.4005 52 10.1834 51.353 8.50032 50.059C6.83344 48.7472 6 46.7264 6 43.9965V40.859C6 39.0509 6.40458 37.553 7.21375 36.3653C8.02291 35.1599 9.11528 34.2736 10.4909 33.7064C11.8664 33.1391 13.42 32.8555 15.1516 32.8555C17.2231 32.8555 18.9304 33.2277 20.2737 33.9723C21.6169 34.7168 22.5879 35.5588 23.1867 36.4983C23.8016 37.4378 24.1091 38.2 24.1091 38.785C24.1091 38.9445 24.0525 39.0863 23.9392 39.2104C23.8421 39.3168 23.7207 39.3699 23.5751 39.3699H18.0889C17.7653 39.3699 17.5306 39.2724 17.3849 39.0775C16.8833 38.3861 16.1388 38.0405 15.1516 38.0405C14.4072 38.0405 13.7842 38.2266 13.2825 38.5988C12.797 38.9711 12.5542 39.4497 12.5542 40.0347V44.5549C12.5542 45.264 12.797 45.8224 13.2825 46.2301C13.768 46.62 14.391 46.815 15.1516 46.815C16.155 46.815 16.8914 46.6289 17.3607 46.2566C17.8462 45.8667 18.097 45.4146 18.1132 44.9006H16.6081C16.4301 44.9006 16.2764 44.8297 16.1469 44.6879C16.0175 44.5461 15.9527 44.3777 15.9527 44.1827V41.2312C15.9527 41.0362 16.0175 40.8678 16.1469 40.726C16.2764 40.5842 16.4301 40.5133 16.6081 40.5133H23.6479Z" fill="#231F20"/>
<path d="M42.2573 50.9098C42.2896 50.9807 42.3058 51.0605 42.3058 51.1491C42.3058 51.3087 42.2492 51.4505 42.1359 51.5746C42.0388 51.6809 41.9174 51.7341 41.7718 51.7341H36.2614C36.0348 51.7341 35.8244 51.6721 35.6302 51.548C35.4522 51.4239 35.3227 51.2644 35.2418 51.0694L33.1056 45.8046H31.0665V51.0162C31.0665 51.2112 31.0018 51.3796 30.8723 51.5214C30.7429 51.6632 30.5891 51.7341 30.4111 51.7341H25.1677C24.9897 51.7341 24.836 51.6632 24.7065 51.5214C24.577 51.3796 24.5123 51.2112 24.5123 51.0162V33.8393C24.5123 33.6443 24.577 33.4759 24.7065 33.3341C24.836 33.1923 24.9897 33.1214 25.1677 33.1214H34.6107C36.0672 33.1214 37.3375 33.3784 38.4218 33.8925C39.5223 34.4066 40.3638 35.1511 40.9464 36.126C41.529 37.101 41.8203 38.2443 41.8203 39.5561C41.8203 41.9669 40.9707 43.7129 39.2715 44.7942L42.2573 50.9098ZM34.1009 40.8855C34.4569 40.8855 34.732 40.7615 34.9262 40.5133C35.1204 40.2474 35.2175 39.9195 35.2175 39.5295C35.2175 39.1395 35.1204 38.8027 34.9262 38.5191C34.7482 38.2177 34.4731 38.0671 34.1009 38.0671H31.0665V40.8855H34.1009Z" fill="#231F20"/>
<path d="M53.6327 46.2832H58.0265C58.2045 46.2832 58.3582 46.3541 58.4877 46.496C58.6172 46.6378 58.6819 46.8062 58.6819 47.0012V51.0162C58.6819 51.2112 58.6172 51.3796 58.4877 51.5214C58.3582 51.6632 58.2045 51.7341 58.0265 51.7341H42.6362C42.4582 51.7341 42.3044 51.6632 42.175 51.5214C42.0455 51.3796 41.9808 51.2112 41.9808 51.0162V47.0012C41.9808 46.8062 42.0455 46.6378 42.175 46.496C42.3044 46.3541 42.4582 46.2832 42.6362 46.2832H47.0785V38.5723H42.6362C42.4582 38.5723 42.3044 38.5014 42.175 38.3595C42.0455 38.2177 41.9808 38.0493 41.9808 37.8543V33.8393C41.9808 33.6443 42.0455 33.4759 42.175 33.3341C42.3044 33.1923 42.4582 33.1214 42.6362 33.1214H58.0265C58.2045 33.1214 58.3582 33.1923 58.4877 33.3341C58.6172 33.4759 58.6819 33.6443 58.6819 33.8393V37.8543C58.6819 38.0493 58.6172 38.2177 58.4877 38.3595C58.3582 38.5014 58.2045 38.5723 58.0265 38.5723H53.6327V46.2832Z" fill="#231F20"/>
<path d="M67.9697 33.1214C70.7047 33.1214 72.8894 33.7684 74.524 35.0624C76.1747 36.3565 77 38.3595 77 41.0717V43.7838C77 46.5491 76.1827 48.5699 74.5482 49.8462C72.9299 51.1048 70.7371 51.7341 67.9697 51.7341H60.226C60.048 51.7341 59.8943 51.6632 59.7648 51.5214C59.6353 51.3796 59.5706 51.2112 59.5706 51.0162V33.8393C59.5706 33.6443 59.6353 33.4759 59.7648 33.3341C59.8943 33.1923 60.048 33.1214 60.226 33.1214H67.9697ZM68.0911 46.5491C68.8517 46.5491 69.4505 46.3541 69.8874 45.9642C70.3406 45.5565 70.5671 44.9892 70.5671 44.2624V40.5931C70.5671 39.8663 70.3406 39.3079 69.8874 38.9179C69.4505 38.5102 68.8517 38.3064 68.0911 38.3064H65.8821V46.5491H68.0911Z" fill="#231F20"/>
<path d="M22.2763 19.4277C22.4544 19.4277 22.6081 19.4987 22.7376 19.6405C22.867 19.7823 22.9318 19.9507 22.9318 20.1457V24.1607C22.9318 24.3557 22.867 24.5241 22.7376 24.6659C22.6081 24.8077 22.4544 24.8786 22.2763 24.8786H7.61428C7.43627 24.8786 7.28253 24.8077 7.15306 24.6659C7.02359 24.5241 6.95886 24.3557 6.95886 24.1607V20.1457C6.95886 19.9507 7.02359 19.7823 7.15306 19.6405C7.28253 19.4987 7.43627 19.4277 7.61428 19.4277H12.1051V13.0462L9.65338 14.8277C9.52391 14.9164 9.40254 14.9607 9.28925 14.9607C9.07887 14.9607 8.89276 14.8455 8.73093 14.615L6.76466 11.2647C6.71611 11.1584 6.69184 11.0343 6.69184 10.8925C6.69184 10.6089 6.78894 10.3873 6.98314 10.2277L12.3722 6.37225C12.4855 6.30135 12.6149 6.2659 12.7606 6.2659H17.7612C17.9392 6.2659 18.093 6.3368 18.2224 6.47861C18.3519 6.62042 18.4166 6.78883 18.4166 6.98382V19.4277H22.2763Z" stroke="#EDE3D7" stroke-width="12" mask="url(#path-2-outside-2_103_67)"/>
<path d="M40.2789 17.9919C40.2789 20.3495 39.5263 22.131 38.0213 23.3364C36.5324 24.5418 34.5743 25.1445 32.1468 25.1445C29.7031 25.1445 27.7368 24.5418 26.2479 23.3364C24.7591 22.131 24.0147 20.3318 24.0147 17.9387V13.2058C24.0147 11.6104 24.3788 10.2721 25.107 9.19075C25.8353 8.10944 26.8063 7.31175 28.02 6.79769C29.2499 6.2659 30.6255 6 32.1468 6C33.668 6 35.0355 6.2659 36.2492 6.79769C37.4792 7.31175 38.4582 8.10944 39.1865 9.19075C39.9147 10.2543 40.2789 11.575 40.2789 13.1526V17.9919ZM30.5689 18.2046C30.5689 18.701 30.7226 19.1175 31.0301 19.4543C31.3376 19.7734 31.7098 19.9329 32.1468 19.9329C32.5837 19.9329 32.9559 19.7645 33.2634 19.4277C33.5709 19.0909 33.7246 18.6832 33.7246 18.2046V12.8867C33.7246 12.3904 33.5709 11.9827 33.2634 11.6636C32.9721 11.3268 32.5999 11.1584 32.1468 11.1584C31.6936 11.1584 31.3133 11.3268 31.0058 11.6636C30.7145 12.0004 30.5689 12.4081 30.5689 12.8867V18.2046Z" stroke="#EDE3D7" stroke-width="12" mask="url(#path-2-outside-2_103_67)"/>
<path d="M58.2328 6.2659C58.4108 6.2659 58.5646 6.3368 58.694 6.47861C58.8235 6.62042 58.8882 6.78883 58.8882 6.98382V11.2647C58.8882 11.4597 58.8235 11.6281 58.694 11.7699C58.5646 11.9118 58.4108 11.9827 58.2328 11.9827H53.0137V24.1607C53.0137 24.3557 52.949 24.5241 52.8195 24.6659C52.69 24.8077 52.5363 24.8786 52.3583 24.8786H47.3577C47.1796 24.8786 47.0259 24.8077 46.8964 24.6659C46.767 24.5241 46.7022 24.3557 46.7022 24.1607V11.9827H41.4831C41.3051 11.9827 41.1514 11.9118 41.0219 11.7699C40.8924 11.6281 40.8277 11.4597 40.8277 11.2647V6.98382C40.8277 6.78883 40.8924 6.62042 41.0219 6.47861C41.1514 6.3368 41.3051 6.2659 41.4831 6.2659H58.2328Z" stroke="#EDE3D7" stroke-width="12" mask="url(#path-2-outside-2_103_67)"/>
<path d="M75.6527 6.2659C75.8308 6.2659 75.9845 6.3368 76.114 6.47861C76.2434 6.62042 76.3082 6.78883 76.3082 6.98382V24.1607C76.3082 24.3557 76.2434 24.5241 76.114 24.6659C75.9845 24.8077 75.8308 24.8786 75.6527 24.8786H70.6521C70.4741 24.8786 70.3204 24.8077 70.1909 24.6659C70.0614 24.5241 69.9967 24.3557 69.9967 24.1607V18.4971H65.1417V24.1607C65.1417 24.3557 65.077 24.5241 64.9475 24.6659C64.818 24.8077 64.6643 24.8786 64.4863 24.8786H59.4856C59.3076 24.8786 59.1539 24.8166 59.0244 24.6925C58.8949 24.5507 58.8302 24.3734 58.8302 24.1607V6.98382C58.8302 6.78883 58.8949 6.62042 59.0244 6.47861C59.1539 6.3368 59.3076 6.2659 59.4856 6.2659H64.4863C64.6643 6.2659 64.818 6.3368 64.9475 6.47861C65.077 6.62042 65.1417 6.78883 65.1417 6.98382V12.4347H69.9967V6.98382C69.9967 6.78883 70.0614 6.62042 70.1909 6.47861C70.3204 6.3368 70.4741 6.2659 70.6521 6.2659H75.6527Z" stroke="#EDE3D7" stroke-width="12" mask="url(#path-2-outside-2_103_67)"/>
<path d="M23.6479 40.5133C23.8259 40.5133 23.9796 40.5842 24.1091 40.726C24.2386 40.8678 24.3033 41.0362 24.3033 41.2312V44.0497C24.3033 46.7441 23.4618 48.7472 21.7787 50.059C20.1118 51.353 17.9028 52 15.1516 52C12.4005 52 10.1834 51.353 8.50032 50.059C6.83344 48.7472 6 46.7264 6 43.9965V40.859C6 39.0509 6.40458 37.553 7.21375 36.3653C8.02291 35.1599 9.11528 34.2736 10.4909 33.7064C11.8664 33.1391 13.42 32.8555 15.1516 32.8555C17.2231 32.8555 18.9304 33.2277 20.2737 33.9723C21.6169 34.7168 22.5879 35.5588 23.1867 36.4983C23.8016 37.4378 24.1091 38.2 24.1091 38.785C24.1091 38.9445 24.0525 39.0863 23.9392 39.2104C23.8421 39.3168 23.7207 39.3699 23.5751 39.3699H18.0889C17.7653 39.3699 17.5306 39.2724 17.3849 39.0775C16.8833 38.3861 16.1388 38.0405 15.1516 38.0405C14.4072 38.0405 13.7842 38.2266 13.2825 38.5988C12.797 38.9711 12.5542 39.4497 12.5542 40.0347V44.5549C12.5542 45.264 12.797 45.8224 13.2825 46.2301C13.768 46.62 14.391 46.815 15.1516 46.815C16.155 46.815 16.8914 46.6289 17.3607 46.2566C17.8462 45.8667 18.097 45.4146 18.1132 44.9006H16.6081C16.4301 44.9006 16.2764 44.8297 16.1469 44.6879C16.0175 44.5461 15.9527 44.3777 15.9527 44.1827V41.2312C15.9527 41.0362 16.0175 40.8678 16.1469 40.726C16.2764 40.5842 16.4301 40.5133 16.6081 40.5133H23.6479Z" stroke="#EDE3D7" stroke-width="12" mask="url(#path-2-outside-2_103_67)"/>
<path d="M42.2573 50.9098C42.2896 50.9807 42.3058 51.0605 42.3058 51.1491C42.3058 51.3087 42.2492 51.4505 42.1359 51.5746C42.0388 51.6809 41.9174 51.7341 41.7718 51.7341H36.2614C36.0348 51.7341 35.8244 51.6721 35.6302 51.548C35.4522 51.4239 35.3227 51.2644 35.2418 51.0694L33.1056 45.8046H31.0665V51.0162C31.0665 51.2112 31.0018 51.3796 30.8723 51.5214C30.7429 51.6632 30.5891 51.7341 30.4111 51.7341H25.1677C24.9897 51.7341 24.836 51.6632 24.7065 51.5214C24.577 51.3796 24.5123 51.2112 24.5123 51.0162V33.8393C24.5123 33.6443 24.577 33.4759 24.7065 33.3341C24.836 33.1923 24.9897 33.1214 25.1677 33.1214H34.6107C36.0672 33.1214 37.3375 33.3784 38.4218 33.8925C39.5223 34.4066 40.3638 35.1511 40.9464 36.126C41.529 37.101 41.8203 38.2443 41.8203 39.5561C41.8203 41.9669 40.9707 43.7129 39.2715 44.7942L42.2573 50.9098ZM34.1009 40.8855C34.4569 40.8855 34.732 40.7615 34.9262 40.5133C35.1204 40.2474 35.2175 39.9195 35.2175 39.5295C35.2175 39.1395 35.1204 38.8027 34.9262 38.5191C34.7482 38.2177 34.4731 38.0671 34.1009 38.0671H31.0665V40.8855H34.1009Z" stroke="#EDE3D7" stroke-width="12" mask="url(#path-2-outside-2_103_67)"/>
<path d="M53.6327 46.2832H58.0265C58.2045 46.2832 58.3582 46.3541 58.4877 46.496C58.6172 46.6378 58.6819 46.8062 58.6819 47.0012V51.0162C58.6819 51.2112 58.6172 51.3796 58.4877 51.5214C58.3582 51.6632 58.2045 51.7341 58.0265 51.7341H42.6362C42.4582 51.7341 42.3044 51.6632 42.175 51.5214C42.0455 51.3796 41.9808 51.2112 41.9808 51.0162V47.0012C41.9808 46.8062 42.0455 46.6378 42.175 46.496C42.3044 46.3541 42.4582 46.2832 42.6362 46.2832H47.0785V38.5723H42.6362C42.4582 38.5723 42.3044 38.5014 42.175 38.3595C42.0455 38.2177 41.9808 38.0493 41.9808 37.8543V33.8393C41.9808 33.6443 42.0455 33.4759 42.175 33.3341C42.3044 33.1923 42.4582 33.1214 42.6362 33.1214H58.0265C58.2045 33.1214 58.3582 33.1923 58.4877 33.3341C58.6172 33.4759 58.6819 33.6443 58.6819 33.8393V37.8543C58.6819 38.0493 58.6172 38.2177 58.4877 38.3595C58.3582 38.5014 58.2045 38.5723 58.0265 38.5723H53.6327V46.2832Z" stroke="#EDE3D7" stroke-width="12" mask="url(#path-2-outside-2_103_67)"/>
<path d="M67.9697 33.1214C70.7047 33.1214 72.8894 33.7684 74.524 35.0624C76.1747 36.3565 77 38.3595 77 41.0717V43.7838C77 46.5491 76.1827 48.5699 74.5482 49.8462C72.9299 51.1048 70.7371 51.7341 67.9697 51.7341H60.226C60.048 51.7341 59.8943 51.6632 59.7648 51.5214C59.6353 51.3796 59.5706 51.2112 59.5706 51.0162V33.8393C59.5706 33.6443 59.6353 33.4759 59.7648 33.3341C59.8943 33.1923 60.048 33.1214 60.226 33.1214H67.9697ZM68.0911 46.5491C68.8517 46.5491 69.4505 46.3541 69.8874 45.9642C70.3406 45.5565 70.5671 44.9892 70.5671 44.2624V40.5931C70.5671 39.8663 70.3406 39.3079 69.8874 38.9179C69.4505 38.5102 68.8517 38.3064 68.0911 38.3064H65.8821V46.5491H68.0911Z" stroke="#EDE3D7" stroke-width="12" mask="url(#path-2-outside-2_103_67)"/>
</svg>
