<svg width="610" height="314" viewBox="0 0 610 314" fill="none" xmlns="http://www.w3.org/2000/svg">
<g filter="url(#filter0_d_103_540)">
<mask id="path-1-outside-1_103_540" maskUnits="userSpaceOnUse" x="4" y="46.79" width="602" height="370" fill="black">
<rect fill="white" x="4" y="46.79" width="602" height="370"/>
<path d="M162.041 170.017C163.365 170.017 164.508 170.472 165.471 171.383C166.434 172.294 166.915 173.375 166.915 174.627V200.41C166.915 201.662 166.434 202.743 165.471 203.654C164.508 204.565 163.365 205.02 162.041 205.02H53.0048C51.681 205.02 50.5377 204.565 49.5749 203.654C48.6121 202.743 48.1307 201.662 48.1307 200.41V174.627C48.1307 173.375 48.6121 172.294 49.5749 171.383C50.5377 170.472 51.681 170.017 53.0048 170.017H86.4017V129.038L68.1688 140.478C67.206 141.047 66.3034 141.332 65.4609 141.332C63.8964 141.332 62.5124 140.592 61.3089 139.112L46.6865 117.598C46.3255 116.915 46.1449 116.118 46.1449 115.207C46.1449 113.386 46.867 111.963 48.3112 110.939L88.3874 86.1805C89.2299 85.7252 90.1926 85.4975 91.2758 85.4975H128.464C129.787 85.4975 130.931 85.9528 131.894 86.8635C132.856 87.7741 133.338 88.8555 133.338 90.1076V170.017H162.041Z"/>
<path d="M295.919 160.797C295.919 175.936 290.323 187.376 279.13 195.117C268.058 202.857 253.496 206.727 235.443 206.727C217.271 206.727 202.648 202.857 191.576 195.117C180.504 187.376 174.968 175.822 174.968 160.455V130.062C174.968 119.817 177.676 111.223 183.092 104.28C188.507 97.3359 195.728 92.2135 204.755 88.9124C213.901 85.4975 224.131 83.79 235.443 83.79C246.756 83.79 256.926 85.4975 265.952 88.9124C275.098 92.2135 282.38 97.3359 287.795 104.28C293.211 111.109 295.919 119.59 295.919 129.721V160.797ZM223.709 162.163C223.709 165.35 224.853 168.025 227.139 170.188C229.426 172.237 232.194 173.261 235.443 173.261C238.693 173.261 241.461 172.18 243.748 170.017C246.034 167.854 247.178 165.236 247.178 162.163V128.013C247.178 124.826 246.034 122.208 243.748 120.159C241.581 117.996 238.813 116.915 235.443 116.915C232.074 116.915 229.246 117.996 226.959 120.159C224.793 122.322 223.709 124.94 223.709 128.013V162.163Z"/>
<path d="M429.436 85.4975C430.76 85.4975 431.903 85.9528 432.866 86.8635C433.828 87.7741 434.31 88.8555 434.31 90.1076V117.598C434.31 118.85 433.828 119.931 432.866 120.842C431.903 121.753 430.76 122.208 429.436 122.208H390.623V200.41C390.623 201.662 390.142 202.743 389.179 203.654C388.216 204.565 387.073 205.02 385.749 205.02H348.561C347.237 205.02 346.094 204.565 345.131 203.654C344.168 202.743 343.687 201.662 343.687 200.41V122.208H304.874C303.551 122.208 302.407 121.753 301.445 120.842C300.482 119.931 300 118.85 300 117.598V90.1076C300 88.8555 300.482 87.7741 301.445 86.8635C302.407 85.9528 303.551 85.4975 304.874 85.4975H429.436Z"/>
<path d="M558.981 85.4975C560.305 85.4975 561.448 85.9528 562.411 86.8635C563.374 87.7741 563.855 88.8555 563.855 90.1076V200.41C563.855 201.662 563.374 202.743 562.411 203.654C561.448 204.565 560.305 205.02 558.981 205.02H521.793C520.469 205.02 519.326 204.565 518.363 203.654C517.4 202.743 516.919 201.662 516.919 200.41V164.041H480.814V200.41C480.814 201.662 480.333 202.743 479.37 203.654C478.407 204.565 477.264 205.02 475.94 205.02H438.752C437.429 205.02 436.285 204.621 435.322 203.825C434.36 202.914 433.878 201.776 433.878 200.41V90.1076C433.878 88.8555 434.36 87.7741 435.322 86.8635C436.285 85.9528 437.429 85.4975 438.752 85.4975H475.94C477.264 85.4975 478.407 85.9528 479.37 86.8635C480.333 87.7741 480.814 88.8555 480.814 90.1076V125.111H516.919V90.1076C516.919 88.8555 517.4 87.7741 518.363 86.8635C519.326 85.9528 520.469 85.4975 521.793 85.4975H558.981Z"/>
<path d="M172.241 305.419C173.564 305.419 174.708 305.874 175.67 306.785C176.633 307.695 177.115 308.777 177.115 310.029V328.128C177.115 345.43 170.857 358.293 158.34 366.717C145.944 375.026 129.517 379.181 109.057 379.181C88.598 379.181 72.1102 375.026 59.5939 366.717C47.198 358.293 41 345.316 41 327.786V307.638C41 296.028 44.0087 286.409 50.0262 278.782C56.0436 271.042 64.1672 265.35 74.3968 261.708C84.6265 258.065 96.18 256.244 109.057 256.244C124.462 256.244 137.159 258.634 147.148 263.415C157.137 268.196 164.358 273.603 168.811 279.636C173.384 285.669 175.67 290.564 175.67 294.32C175.67 295.345 175.249 296.255 174.407 297.052C173.685 297.735 172.782 298.077 171.699 298.077H130.901C128.494 298.077 126.749 297.451 125.665 296.198C121.935 291.759 116.399 289.539 109.057 289.539C103.521 289.539 98.8878 290.734 95.157 293.125C91.5466 295.515 89.7413 298.589 89.7413 302.345V331.372C89.7413 335.925 91.5466 339.511 95.157 342.129C98.7675 344.633 103.401 345.886 109.057 345.886C116.519 345.886 121.995 344.69 125.485 342.3C129.095 339.796 130.961 336.893 131.081 333.592H119.889C118.565 333.592 117.422 333.136 116.459 332.226C115.496 331.315 115.015 330.234 115.015 328.982V310.029C115.015 308.777 115.496 307.695 116.459 306.785C117.422 305.874 118.565 305.419 119.889 305.419H172.241Z"/>
<path d="M310.632 372.18C310.872 372.636 310.993 373.148 310.993 373.717C310.993 374.742 310.571 375.652 309.729 376.449C309.007 377.132 308.104 377.474 307.021 377.474H266.042C264.357 377.474 262.793 377.075 261.349 376.278C260.025 375.482 259.062 374.457 258.46 373.205L242.574 339.397H227.41V372.863C227.41 374.116 226.929 375.197 225.966 376.108C225.003 377.018 223.86 377.474 222.536 377.474H183.543C182.219 377.474 181.076 377.018 180.113 376.108C179.15 375.197 178.669 374.116 178.669 372.863V262.561C178.669 261.309 179.15 260.228 180.113 259.317C181.076 258.407 182.219 257.951 183.543 257.951H253.767C264.598 257.951 274.045 259.602 282.109 262.903C290.293 266.204 296.551 270.985 300.883 277.246C305.216 283.506 307.382 290.848 307.382 299.272C307.382 314.753 301.064 325.965 288.427 332.909L310.632 372.18ZM249.976 307.809C252.623 307.809 254.669 307.012 256.113 305.419C257.558 303.711 258.28 301.605 258.28 299.101C258.28 296.597 257.558 294.434 256.113 292.613C254.79 290.678 252.744 289.71 249.976 289.71H227.41V307.809H249.976Z"/>
<path d="M395.226 342.471H427.901C429.225 342.471 430.368 342.926 431.331 343.837C432.294 344.747 432.775 345.829 432.775 347.081V372.863C432.775 374.116 432.294 375.197 431.331 376.108C430.368 377.018 429.225 377.474 427.901 377.474H313.449C312.126 377.474 310.982 377.018 310.019 376.108C309.057 375.197 308.575 374.116 308.575 372.863V347.081C308.575 345.829 309.057 344.747 310.019 343.837C310.982 342.926 312.126 342.471 313.449 342.471H346.485V292.954H313.449C312.126 292.954 310.982 292.499 310.019 291.588C309.057 290.678 308.575 289.596 308.575 288.344V262.561C308.575 261.309 309.057 260.228 310.019 259.317C310.982 258.407 312.126 257.951 313.449 257.951H427.901C429.225 257.951 430.368 258.407 431.331 259.317C432.294 260.228 432.775 261.309 432.775 262.561V288.344C432.775 289.596 432.294 290.678 431.331 291.588C430.368 292.499 429.225 292.954 427.901 292.954H395.226V342.471Z"/>
<path d="M501.845 257.951C522.184 257.951 538.431 262.106 550.587 270.416C562.862 278.725 569 291.588 569 309.004V326.42C569 344.178 562.922 357.155 550.767 365.351C538.732 373.433 522.425 377.474 501.845 377.474H444.258C442.934 377.474 441.791 377.018 440.828 376.108C439.866 375.197 439.384 374.116 439.384 372.863V262.561C439.384 261.309 439.866 260.228 440.828 259.317C441.791 258.407 442.934 257.951 444.258 257.951H501.845ZM502.748 344.178C508.404 344.178 512.857 342.926 516.107 340.422C519.476 337.804 521.161 334.161 521.161 329.494V305.931C521.161 301.264 519.476 297.678 516.107 295.174C512.857 292.556 508.404 291.247 502.748 291.247H486.32V344.178H502.748Z"/>
</mask>
<path d="M162.041 170.017C163.365 170.017 164.508 170.472 165.471 171.383C166.434 172.294 166.915 173.375 166.915 174.627V200.41C166.915 201.662 166.434 202.743 165.471 203.654C164.508 204.565 163.365 205.02 162.041 205.02H53.0048C51.681 205.02 50.5377 204.565 49.5749 203.654C48.6121 202.743 48.1307 201.662 48.1307 200.41V174.627C48.1307 173.375 48.6121 172.294 49.5749 171.383C50.5377 170.472 51.681 170.017 53.0048 170.017H86.4017V129.038L68.1688 140.478C67.206 141.047 66.3034 141.332 65.4609 141.332C63.8964 141.332 62.5124 140.592 61.3089 139.112L46.6865 117.598C46.3255 116.915 46.1449 116.118 46.1449 115.207C46.1449 113.386 46.867 111.963 48.3112 110.939L88.3874 86.1805C89.2299 85.7252 90.1926 85.4975 91.2758 85.4975H128.464C129.787 85.4975 130.931 85.9528 131.894 86.8635C132.856 87.7741 133.338 88.8555 133.338 90.1076V170.017H162.041Z" fill="#111111"/>
<path d="M295.919 160.797C295.919 175.936 290.323 187.376 279.13 195.117C268.058 202.857 253.496 206.727 235.443 206.727C217.271 206.727 202.648 202.857 191.576 195.117C180.504 187.376 174.968 175.822 174.968 160.455V130.062C174.968 119.817 177.676 111.223 183.092 104.28C188.507 97.3359 195.728 92.2135 204.755 88.9124C213.901 85.4975 224.131 83.79 235.443 83.79C246.756 83.79 256.926 85.4975 265.952 88.9124C275.098 92.2135 282.38 97.3359 287.795 104.28C293.211 111.109 295.919 119.59 295.919 129.721V160.797ZM223.709 162.163C223.709 165.35 224.853 168.025 227.139 170.188C229.426 172.237 232.194 173.261 235.443 173.261C238.693 173.261 241.461 172.18 243.748 170.017C246.034 167.854 247.178 165.236 247.178 162.163V128.013C247.178 124.826 246.034 122.208 243.748 120.159C241.581 117.996 238.813 116.915 235.443 116.915C232.074 116.915 229.246 117.996 226.959 120.159C224.793 122.322 223.709 124.94 223.709 128.013V162.163Z" fill="#111111"/>
<path d="M429.436 85.4975C430.76 85.4975 431.903 85.9528 432.866 86.8635C433.828 87.7741 434.31 88.8555 434.31 90.1076V117.598C434.31 118.85 433.828 119.931 432.866 120.842C431.903 121.753 430.76 122.208 429.436 122.208H390.623V200.41C390.623 201.662 390.142 202.743 389.179 203.654C388.216 204.565 387.073 205.02 385.749 205.02H348.561C347.237 205.02 346.094 204.565 345.131 203.654C344.168 202.743 343.687 201.662 343.687 200.41V122.208H304.874C303.551 122.208 302.407 121.753 301.445 120.842C300.482 119.931 300 118.85 300 117.598V90.1076C300 88.8555 300.482 87.7741 301.445 86.8635C302.407 85.9528 303.551 85.4975 304.874 85.4975H429.436Z" fill="#111111"/>
<path d="M558.981 85.4975C560.305 85.4975 561.448 85.9528 562.411 86.8635C563.374 87.7741 563.855 88.8555 563.855 90.1076V200.41C563.855 201.662 563.374 202.743 562.411 203.654C561.448 204.565 560.305 205.02 558.981 205.02H521.793C520.469 205.02 519.326 204.565 518.363 203.654C517.4 202.743 516.919 201.662 516.919 200.41V164.041H480.814V200.41C480.814 201.662 480.333 202.743 479.37 203.654C478.407 204.565 477.264 205.02 475.94 205.02H438.752C437.429 205.02 436.285 204.621 435.322 203.825C434.36 202.914 433.878 201.776 433.878 200.41V90.1076C433.878 88.8555 434.36 87.7741 435.322 86.8635C436.285 85.9528 437.429 85.4975 438.752 85.4975H475.94C477.264 85.4975 478.407 85.9528 479.37 86.8635C480.333 87.7741 480.814 88.8555 480.814 90.1076V125.111H516.919V90.1076C516.919 88.8555 517.4 87.7741 518.363 86.8635C519.326 85.9528 520.469 85.4975 521.793 85.4975H558.981Z" fill="#111111"/>
<path d="M172.241 305.419C173.564 305.419 174.708 305.874 175.67 306.785C176.633 307.695 177.115 308.777 177.115 310.029V328.128C177.115 345.43 170.857 358.293 158.34 366.717C145.944 375.026 129.517 379.181 109.057 379.181C88.598 379.181 72.1102 375.026 59.5939 366.717C47.198 358.293 41 345.316 41 327.786V307.638C41 296.028 44.0087 286.409 50.0262 278.782C56.0436 271.042 64.1672 265.35 74.3968 261.708C84.6265 258.065 96.18 256.244 109.057 256.244C124.462 256.244 137.159 258.634 147.148 263.415C157.137 268.196 164.358 273.603 168.811 279.636C173.384 285.669 175.67 290.564 175.67 294.32C175.67 295.345 175.249 296.255 174.407 297.052C173.685 297.735 172.782 298.077 171.699 298.077H130.901C128.494 298.077 126.749 297.451 125.665 296.198C121.935 291.759 116.399 289.539 109.057 289.539C103.521 289.539 98.8878 290.734 95.157 293.125C91.5466 295.515 89.7413 298.589 89.7413 302.345V331.372C89.7413 335.925 91.5466 339.511 95.157 342.129C98.7675 344.633 103.401 345.886 109.057 345.886C116.519 345.886 121.995 344.69 125.485 342.3C129.095 339.796 130.961 336.893 131.081 333.592H119.889C118.565 333.592 117.422 333.136 116.459 332.226C115.496 331.315 115.015 330.234 115.015 328.982V310.029C115.015 308.777 115.496 307.695 116.459 306.785C117.422 305.874 118.565 305.419 119.889 305.419H172.241Z" fill="#111111"/>
<path d="M310.632 372.18C310.872 372.636 310.993 373.148 310.993 373.717C310.993 374.742 310.571 375.652 309.729 376.449C309.007 377.132 308.104 377.474 307.021 377.474H266.042C264.357 377.474 262.793 377.075 261.349 376.278C260.025 375.482 259.062 374.457 258.46 373.205L242.574 339.397H227.41V372.863C227.41 374.116 226.929 375.197 225.966 376.108C225.003 377.018 223.86 377.474 222.536 377.474H183.543C182.219 377.474 181.076 377.018 180.113 376.108C179.15 375.197 178.669 374.116 178.669 372.863V262.561C178.669 261.309 179.15 260.228 180.113 259.317C181.076 258.407 182.219 257.951 183.543 257.951H253.767C264.598 257.951 274.045 259.602 282.109 262.903C290.293 266.204 296.551 270.985 300.883 277.246C305.216 283.506 307.382 290.848 307.382 299.272C307.382 314.753 301.064 325.965 288.427 332.909L310.632 372.18ZM249.976 307.809C252.623 307.809 254.669 307.012 256.113 305.419C257.558 303.711 258.28 301.605 258.28 299.101C258.28 296.597 257.558 294.434 256.113 292.613C254.79 290.678 252.744 289.71 249.976 289.71H227.41V307.809H249.976Z" fill="#111111"/>
<path d="M395.226 342.471H427.901C429.225 342.471 430.368 342.926 431.331 343.837C432.294 344.747 432.775 345.829 432.775 347.081V372.863C432.775 374.116 432.294 375.197 431.331 376.108C430.368 377.018 429.225 377.474 427.901 377.474H313.449C312.126 377.474 310.982 377.018 310.019 376.108C309.057 375.197 308.575 374.116 308.575 372.863V347.081C308.575 345.829 309.057 344.747 310.019 343.837C310.982 342.926 312.126 342.471 313.449 342.471H346.485V292.954H313.449C312.126 292.954 310.982 292.499 310.019 291.588C309.057 290.678 308.575 289.596 308.575 288.344V262.561C308.575 261.309 309.057 260.228 310.019 259.317C310.982 258.407 312.126 257.951 313.449 257.951H427.901C429.225 257.951 430.368 258.407 431.331 259.317C432.294 260.228 432.775 261.309 432.775 262.561V288.344C432.775 289.596 432.294 290.678 431.331 291.588C430.368 292.499 429.225 292.954 427.901 292.954H395.226V342.471Z" fill="#111111"/>
<path d="M501.845 257.951C522.184 257.951 538.431 262.106 550.587 270.416C562.862 278.725 569 291.588 569 309.004V326.42C569 344.178 562.922 357.155 550.767 365.351C538.732 373.433 522.425 377.474 501.845 377.474H444.258C442.934 377.474 441.791 377.018 440.828 376.108C439.866 375.197 439.384 374.116 439.384 372.863V262.561C439.384 261.309 439.866 260.228 440.828 259.317C441.791 258.407 442.934 257.951 444.258 257.951H501.845ZM502.748 344.178C508.404 344.178 512.857 342.926 516.107 340.422C519.476 337.804 521.161 334.161 521.161 329.494V305.931C521.161 301.264 519.476 297.678 516.107 295.174C512.857 292.556 508.404 291.247 502.748 291.247H486.32V344.178H502.748Z" fill="#111111"/>
<path d="M162.041 170.017C163.365 170.017 164.508 170.472 165.471 171.383C166.434 172.294 166.915 173.375 166.915 174.627V200.41C166.915 201.662 166.434 202.743 165.471 203.654C164.508 204.565 163.365 205.02 162.041 205.02H53.0048C51.681 205.02 50.5377 204.565 49.5749 203.654C48.6121 202.743 48.1307 201.662 48.1307 200.41V174.627C48.1307 173.375 48.6121 172.294 49.5749 171.383C50.5377 170.472 51.681 170.017 53.0048 170.017H86.4017V129.038L68.1688 140.478C67.206 141.047 66.3034 141.332 65.4609 141.332C63.8964 141.332 62.5124 140.592 61.3089 139.112L46.6865 117.598C46.3255 116.915 46.1449 116.118 46.1449 115.207C46.1449 113.386 46.867 111.963 48.3112 110.939L88.3874 86.1805C89.2299 85.7252 90.1926 85.4975 91.2758 85.4975H128.464C129.787 85.4975 130.931 85.9528 131.894 86.8635C132.856 87.7741 133.338 88.8555 133.338 90.1076V170.017H162.041Z" stroke="#111111" stroke-width="74" mask="url(#path-1-outside-1_103_540)"/>
<path d="M295.919 160.797C295.919 175.936 290.323 187.376 279.13 195.117C268.058 202.857 253.496 206.727 235.443 206.727C217.271 206.727 202.648 202.857 191.576 195.117C180.504 187.376 174.968 175.822 174.968 160.455V130.062C174.968 119.817 177.676 111.223 183.092 104.28C188.507 97.3359 195.728 92.2135 204.755 88.9124C213.901 85.4975 224.131 83.79 235.443 83.79C246.756 83.79 256.926 85.4975 265.952 88.9124C275.098 92.2135 282.38 97.3359 287.795 104.28C293.211 111.109 295.919 119.59 295.919 129.721V160.797ZM223.709 162.163C223.709 165.35 224.853 168.025 227.139 170.188C229.426 172.237 232.194 173.261 235.443 173.261C238.693 173.261 241.461 172.18 243.748 170.017C246.034 167.854 247.178 165.236 247.178 162.163V128.013C247.178 124.826 246.034 122.208 243.748 120.159C241.581 117.996 238.813 116.915 235.443 116.915C232.074 116.915 229.246 117.996 226.959 120.159C224.793 122.322 223.709 124.94 223.709 128.013V162.163Z" stroke="#111111" stroke-width="74" mask="url(#path-1-outside-1_103_540)"/>
<path d="M429.436 85.4975C430.76 85.4975 431.903 85.9528 432.866 86.8635C433.828 87.7741 434.31 88.8555 434.31 90.1076V117.598C434.31 118.85 433.828 119.931 432.866 120.842C431.903 121.753 430.76 122.208 429.436 122.208H390.623V200.41C390.623 201.662 390.142 202.743 389.179 203.654C388.216 204.565 387.073 205.02 385.749 205.02H348.561C347.237 205.02 346.094 204.565 345.131 203.654C344.168 202.743 343.687 201.662 343.687 200.41V122.208H304.874C303.551 122.208 302.407 121.753 301.445 120.842C300.482 119.931 300 118.85 300 117.598V90.1076C300 88.8555 300.482 87.7741 301.445 86.8635C302.407 85.9528 303.551 85.4975 304.874 85.4975H429.436Z" stroke="#111111" stroke-width="74" mask="url(#path-1-outside-1_103_540)"/>
<path d="M558.981 85.4975C560.305 85.4975 561.448 85.9528 562.411 86.8635C563.374 87.7741 563.855 88.8555 563.855 90.1076V200.41C563.855 201.662 563.374 202.743 562.411 203.654C561.448 204.565 560.305 205.02 558.981 205.02H521.793C520.469 205.02 519.326 204.565 518.363 203.654C517.4 202.743 516.919 201.662 516.919 200.41V164.041H480.814V200.41C480.814 201.662 480.333 202.743 479.37 203.654C478.407 204.565 477.264 205.02 475.94 205.02H438.752C437.429 205.02 436.285 204.621 435.322 203.825C434.36 202.914 433.878 201.776 433.878 200.41V90.1076C433.878 88.8555 434.36 87.7741 435.322 86.8635C436.285 85.9528 437.429 85.4975 438.752 85.4975H475.94C477.264 85.4975 478.407 85.9528 479.37 86.8635C480.333 87.7741 480.814 88.8555 480.814 90.1076V125.111H516.919V90.1076C516.919 88.8555 517.4 87.7741 518.363 86.8635C519.326 85.9528 520.469 85.4975 521.793 85.4975H558.981Z" stroke="#111111" stroke-width="74" mask="url(#path-1-outside-1_103_540)"/>
<path d="M172.241 305.419C173.564 305.419 174.708 305.874 175.67 306.785C176.633 307.695 177.115 308.777 177.115 310.029V328.128C177.115 345.43 170.857 358.293 158.34 366.717C145.944 375.026 129.517 379.181 109.057 379.181C88.598 379.181 72.1102 375.026 59.5939 366.717C47.198 358.293 41 345.316 41 327.786V307.638C41 296.028 44.0087 286.409 50.0262 278.782C56.0436 271.042 64.1672 265.35 74.3968 261.708C84.6265 258.065 96.18 256.244 109.057 256.244C124.462 256.244 137.159 258.634 147.148 263.415C157.137 268.196 164.358 273.603 168.811 279.636C173.384 285.669 175.67 290.564 175.67 294.32C175.67 295.345 175.249 296.255 174.407 297.052C173.685 297.735 172.782 298.077 171.699 298.077H130.901C128.494 298.077 126.749 297.451 125.665 296.198C121.935 291.759 116.399 289.539 109.057 289.539C103.521 289.539 98.8878 290.734 95.157 293.125C91.5466 295.515 89.7413 298.589 89.7413 302.345V331.372C89.7413 335.925 91.5466 339.511 95.157 342.129C98.7675 344.633 103.401 345.886 109.057 345.886C116.519 345.886 121.995 344.69 125.485 342.3C129.095 339.796 130.961 336.893 131.081 333.592H119.889C118.565 333.592 117.422 333.136 116.459 332.226C115.496 331.315 115.015 330.234 115.015 328.982V310.029C115.015 308.777 115.496 307.695 116.459 306.785C117.422 305.874 118.565 305.419 119.889 305.419H172.241Z" stroke="#111111" stroke-width="74" mask="url(#path-1-outside-1_103_540)"/>
<path d="M310.632 372.18C310.872 372.636 310.993 373.148 310.993 373.717C310.993 374.742 310.571 375.652 309.729 376.449C309.007 377.132 308.104 377.474 307.021 377.474H266.042C264.357 377.474 262.793 377.075 261.349 376.278C260.025 375.482 259.062 374.457 258.46 373.205L242.574 339.397H227.41V372.863C227.41 374.116 226.929 375.197 225.966 376.108C225.003 377.018 223.86 377.474 222.536 377.474H183.543C182.219 377.474 181.076 377.018 180.113 376.108C179.15 375.197 178.669 374.116 178.669 372.863V262.561C178.669 261.309 179.15 260.228 180.113 259.317C181.076 258.407 182.219 257.951 183.543 257.951H253.767C264.598 257.951 274.045 259.602 282.109 262.903C290.293 266.204 296.551 270.985 300.883 277.246C305.216 283.506 307.382 290.848 307.382 299.272C307.382 314.753 301.064 325.965 288.427 332.909L310.632 372.18ZM249.976 307.809C252.623 307.809 254.669 307.012 256.113 305.419C257.558 303.711 258.28 301.605 258.28 299.101C258.28 296.597 257.558 294.434 256.113 292.613C254.79 290.678 252.744 289.71 249.976 289.71H227.41V307.809H249.976Z" stroke="#111111" stroke-width="74" mask="url(#path-1-outside-1_103_540)"/>
<path d="M395.226 342.471H427.901C429.225 342.471 430.368 342.926 431.331 343.837C432.294 344.747 432.775 345.829 432.775 347.081V372.863C432.775 374.116 432.294 375.197 431.331 376.108C430.368 377.018 429.225 377.474 427.901 377.474H313.449C312.126 377.474 310.982 377.018 310.019 376.108C309.057 375.197 308.575 374.116 308.575 372.863V347.081C308.575 345.829 309.057 344.747 310.019 343.837C310.982 342.926 312.126 342.471 313.449 342.471H346.485V292.954H313.449C312.126 292.954 310.982 292.499 310.019 291.588C309.057 290.678 308.575 289.596 308.575 288.344V262.561C308.575 261.309 309.057 260.228 310.019 259.317C310.982 258.407 312.126 257.951 313.449 257.951H427.901C429.225 257.951 430.368 258.407 431.331 259.317C432.294 260.228 432.775 261.309 432.775 262.561V288.344C432.775 289.596 432.294 290.678 431.331 291.588C430.368 292.499 429.225 292.954 427.901 292.954H395.226V342.471Z" stroke="#111111" stroke-width="74" mask="url(#path-1-outside-1_103_540)"/>
<path d="M501.845 257.951C522.184 257.951 538.431 262.106 550.587 270.416C562.862 278.725 569 291.588 569 309.004V326.42C569 344.178 562.922 357.155 550.767 365.351C538.732 373.433 522.425 377.474 501.845 377.474H444.258C442.934 377.474 441.791 377.018 440.828 376.108C439.866 375.197 439.384 374.116 439.384 372.863V262.561C439.384 261.309 439.866 260.228 440.828 259.317C441.791 258.407 442.934 257.951 444.258 257.951H501.845ZM502.748 344.178C508.404 344.178 512.857 342.926 516.107 340.422C519.476 337.804 521.161 334.161 521.161 329.494V305.931C521.161 301.264 519.476 297.678 516.107 295.174C512.857 292.556 508.404 291.247 502.748 291.247H486.32V344.178H502.748Z" stroke="#111111" stroke-width="74" mask="url(#path-1-outside-1_103_540)"/>
<mask id="path-2-outside-2_103_540" maskUnits="userSpaceOnUse" x="4" y="0" width="602" height="381" fill="black">
<rect fill="white" x="4" width="602" height="381"/>
<path d="M162.041 126.616C163.365 126.616 164.508 127.089 165.471 128.035C166.434 128.982 166.915 130.106 166.915 131.407V158.203C166.915 159.504 166.434 160.628 165.471 161.575C164.508 162.521 163.365 162.994 162.041 162.994H53.0048C51.681 162.994 50.5377 162.521 49.5749 161.575C48.6121 160.628 48.1307 159.504 48.1307 158.203V131.407C48.1307 130.106 48.6121 128.982 49.5749 128.035C50.5377 127.089 51.681 126.616 53.0048 126.616H86.4017V84.026L68.1688 95.9156C67.206 96.5071 66.3034 96.8029 65.4609 96.8029C63.8964 96.8029 62.5124 96.0339 61.3089 94.496L46.6865 72.1364C46.3255 71.4266 46.1449 70.5985 46.1449 69.652C46.1449 67.7592 46.867 66.2803 48.3112 65.2156L88.3874 39.4844C89.2299 39.0112 90.1926 38.7746 91.2758 38.7746H128.464C129.787 38.7746 130.931 39.2478 131.894 40.1942C132.856 41.1407 133.338 42.2646 133.338 43.5659V126.616H162.041Z"/>
<path d="M295.919 117.033C295.919 132.767 290.323 144.657 279.13 152.702C268.058 160.746 253.496 164.769 235.443 164.769C217.271 164.769 202.648 160.746 191.576 152.702C180.504 144.657 174.968 132.649 174.968 116.678V85.0908C174.968 74.4434 177.676 65.5114 183.092 58.2948C188.507 51.0782 195.728 45.7545 204.755 42.3237C213.901 38.7746 224.131 37 235.443 37C246.756 37 256.926 38.7746 265.952 42.3237C275.098 45.7545 282.38 51.0782 287.795 58.2948C293.211 65.3931 295.919 74.2067 295.919 84.7358V117.033ZM223.709 118.453C223.709 121.765 224.853 124.545 227.139 126.793C229.426 128.923 232.194 129.987 235.443 129.987C238.693 129.987 241.461 128.863 243.748 126.616C246.034 124.368 247.178 121.647 247.178 118.453V82.9613C247.178 79.6488 246.034 76.9277 243.748 74.7983C241.581 72.5505 238.813 71.4266 235.443 71.4266C232.074 71.4266 229.246 72.5505 226.959 74.7983C224.793 77.0461 223.709 79.7671 223.709 82.9613V118.453Z"/>
<path d="M429.436 38.7746C430.759 38.7746 431.903 39.2478 432.866 40.1942C433.828 41.1407 434.31 42.2646 434.31 43.5659V72.1364C434.31 73.4378 433.828 74.5617 432.866 75.5081C431.903 76.4545 430.759 76.9277 429.436 76.9277H390.623V158.203C390.623 159.504 390.142 160.628 389.179 161.575C388.216 162.521 387.073 162.994 385.749 162.994H348.561C347.237 162.994 346.094 162.521 345.131 161.575C344.168 160.628 343.687 159.504 343.687 158.203V76.9277H304.874C303.551 76.9277 302.407 76.4545 301.445 75.5081C300.482 74.5617 300 73.4378 300 72.1364V43.5659C300 42.2646 300.482 41.1407 301.445 40.1942C302.407 39.2478 303.551 38.7746 304.874 38.7746H429.436Z"/>
<path d="M558.981 38.7746C560.305 38.7746 561.448 39.2478 562.411 40.1942C563.374 41.1407 563.855 42.2646 563.855 43.5659V158.203C563.855 159.504 563.374 160.628 562.411 161.575C561.448 162.521 560.305 162.994 558.981 162.994H521.793C520.469 162.994 519.326 162.521 518.363 161.575C517.4 160.628 516.919 159.504 516.919 158.203V120.405H480.814V158.203C480.814 159.504 480.333 160.628 479.37 161.575C478.407 162.521 477.264 162.994 475.94 162.994H438.752C437.428 162.994 436.285 162.58 435.322 161.752C434.36 160.806 433.878 159.623 433.878 158.203V43.5659C433.878 42.2646 434.36 41.1407 435.322 40.1942C436.285 39.2478 437.428 38.7746 438.752 38.7746H475.94C477.264 38.7746 478.407 39.2478 479.37 40.1942C480.333 41.1407 480.814 42.2646 480.814 43.5659V79.9445H516.919V43.5659C516.919 42.2646 517.4 41.1407 518.363 40.1942C519.326 39.2478 520.469 38.7746 521.793 38.7746H558.981Z"/>
<path d="M172.241 267.339C173.564 267.339 174.708 267.812 175.67 268.758C176.633 269.705 177.115 270.829 177.115 272.13V290.94C177.115 308.923 170.857 322.291 158.34 331.046C145.944 339.682 129.517 344 109.057 344C88.598 344 72.1102 339.682 59.5939 331.046C47.198 322.291 41 308.804 41 290.586V269.646C41 257.579 44.0087 247.582 50.0262 239.656C56.0436 231.611 64.1672 225.696 74.3968 221.91C84.6265 218.124 96.18 216.231 109.057 216.231C124.462 216.231 137.159 218.716 147.148 223.684C157.137 228.653 164.358 234.273 168.811 240.543C173.384 246.813 175.67 251.9 175.67 255.804C175.67 256.869 175.249 257.815 174.407 258.643C173.685 259.353 172.782 259.708 171.699 259.708H130.901C128.494 259.708 126.749 259.057 125.665 257.756C121.935 253.142 116.399 250.835 109.057 250.835C103.521 250.835 98.8878 252.077 95.157 254.562C91.5466 257.046 89.7413 260.24 89.7413 264.145V294.312C89.7413 299.044 91.5466 302.771 95.157 305.492C98.7675 308.095 103.401 309.396 109.057 309.396C116.519 309.396 121.995 308.154 125.485 305.669C129.095 303.067 130.961 300.05 131.081 296.619H119.889C118.565 296.619 117.422 296.146 116.459 295.199C115.496 294.253 115.015 293.129 115.015 291.828V272.13C115.015 270.829 115.496 269.705 116.459 268.758C117.422 267.812 118.565 267.339 119.889 267.339H172.241Z"/>
<path d="M310.632 336.724C310.872 337.197 310.993 337.73 310.993 338.321C310.993 339.386 310.571 340.333 309.729 341.161C309.007 341.871 308.104 342.225 307.021 342.225H266.042C264.357 342.225 262.793 341.811 261.349 340.983C260.025 340.155 259.062 339.09 258.46 337.789L242.574 302.653H227.41V337.434C227.41 338.735 226.929 339.859 225.966 340.806C225.003 341.752 223.86 342.225 222.536 342.225H183.543C182.219 342.225 181.076 341.752 180.113 340.806C179.15 339.859 178.669 338.735 178.669 337.434V222.797C178.669 221.496 179.15 220.372 180.113 219.425C181.076 218.479 182.219 218.006 183.543 218.006H253.767C264.598 218.006 274.045 219.721 282.109 223.152C290.293 226.583 296.551 231.552 300.883 238.058C305.216 244.565 307.382 252.196 307.382 260.95C307.382 277.04 301.064 288.693 288.427 295.909L310.632 336.724ZM249.976 269.823C252.623 269.823 254.669 268.995 256.113 267.339C257.558 265.564 258.28 263.376 258.28 260.773C258.28 258.17 257.558 255.922 256.113 254.029C254.79 252.018 252.744 251.013 249.976 251.013H227.41V269.823H249.976Z"/>
<path d="M395.226 305.847H427.901C429.225 305.847 430.368 306.32 431.331 307.266C432.294 308.213 432.775 309.337 432.775 310.638V337.434C432.775 338.735 432.294 339.859 431.331 340.806C430.368 341.752 429.225 342.225 427.901 342.225H313.449C312.125 342.225 310.982 341.752 310.019 340.806C309.057 339.859 308.575 338.735 308.575 337.434V310.638C308.575 309.337 309.057 308.213 310.019 307.266C310.982 306.32 312.125 305.847 313.449 305.847H346.485V254.384H313.449C312.125 254.384 310.982 253.911 310.019 252.965C309.057 252.018 308.575 250.894 308.575 249.593V222.797C308.575 221.496 309.057 220.372 310.019 219.425C310.982 218.479 312.125 218.006 313.449 218.006H427.901C429.225 218.006 430.368 218.479 431.331 219.425C432.294 220.372 432.775 221.496 432.775 222.797V249.593C432.775 250.894 432.294 252.018 431.331 252.965C430.368 253.911 429.225 254.384 427.901 254.384H395.226V305.847Z"/>
<path d="M501.845 218.006C522.184 218.006 538.431 222.324 550.587 230.96C562.862 239.596 569 252.965 569 271.065V289.166C569 307.621 562.922 321.108 550.767 329.626C538.732 338.026 522.425 342.225 501.845 342.225H444.258C442.934 342.225 441.791 341.752 440.828 340.806C439.866 339.859 439.384 338.735 439.384 337.434V222.797C439.384 221.496 439.866 220.372 440.828 219.425C441.791 218.479 442.934 218.006 444.258 218.006H501.845ZM502.748 307.621C508.404 307.621 512.857 306.32 516.107 303.717C519.476 300.996 521.161 297.211 521.161 292.36V267.871C521.161 263.021 519.476 259.294 516.107 256.691C512.857 253.97 508.404 252.61 502.748 252.61H486.32V307.621H502.748Z"/>
</mask>
<path d="M162.041 126.616C163.365 126.616 164.508 127.089 165.471 128.035C166.434 128.982 166.915 130.106 166.915 131.407V158.203C166.915 159.504 166.434 160.628 165.471 161.575C164.508 162.521 163.365 162.994 162.041 162.994H53.0048C51.681 162.994 50.5377 162.521 49.5749 161.575C48.6121 160.628 48.1307 159.504 48.1307 158.203V131.407C48.1307 130.106 48.6121 128.982 49.5749 128.035C50.5377 127.089 51.681 126.616 53.0048 126.616H86.4017V84.026L68.1688 95.9156C67.206 96.5071 66.3034 96.8029 65.4609 96.8029C63.8964 96.8029 62.5124 96.0339 61.3089 94.496L46.6865 72.1364C46.3255 71.4266 46.1449 70.5985 46.1449 69.652C46.1449 67.7592 46.867 66.2803 48.3112 65.2156L88.3874 39.4844C89.2299 39.0112 90.1926 38.7746 91.2758 38.7746H128.464C129.787 38.7746 130.931 39.2478 131.894 40.1942C132.856 41.1407 133.338 42.2646 133.338 43.5659V126.616H162.041Z" fill="black"/>
<path d="M295.919 117.033C295.919 132.767 290.323 144.657 279.13 152.702C268.058 160.746 253.496 164.769 235.443 164.769C217.271 164.769 202.648 160.746 191.576 152.702C180.504 144.657 174.968 132.649 174.968 116.678V85.0908C174.968 74.4434 177.676 65.5114 183.092 58.2948C188.507 51.0782 195.728 45.7545 204.755 42.3237C213.901 38.7746 224.131 37 235.443 37C246.756 37 256.926 38.7746 265.952 42.3237C275.098 45.7545 282.38 51.0782 287.795 58.2948C293.211 65.3931 295.919 74.2067 295.919 84.7358V117.033ZM223.709 118.453C223.709 121.765 224.853 124.545 227.139 126.793C229.426 128.923 232.194 129.987 235.443 129.987C238.693 129.987 241.461 128.863 243.748 126.616C246.034 124.368 247.178 121.647 247.178 118.453V82.9613C247.178 79.6488 246.034 76.9277 243.748 74.7983C241.581 72.5505 238.813 71.4266 235.443 71.4266C232.074 71.4266 229.246 72.5505 226.959 74.7983C224.793 77.0461 223.709 79.7671 223.709 82.9613V118.453Z" fill="black"/>
<path d="M429.436 38.7746C430.759 38.7746 431.903 39.2478 432.866 40.1942C433.828 41.1407 434.31 42.2646 434.31 43.5659V72.1364C434.31 73.4378 433.828 74.5617 432.866 75.5081C431.903 76.4545 430.759 76.9277 429.436 76.9277H390.623V158.203C390.623 159.504 390.142 160.628 389.179 161.575C388.216 162.521 387.073 162.994 385.749 162.994H348.561C347.237 162.994 346.094 162.521 345.131 161.575C344.168 160.628 343.687 159.504 343.687 158.203V76.9277H304.874C303.551 76.9277 302.407 76.4545 301.445 75.5081C300.482 74.5617 300 73.4378 300 72.1364V43.5659C300 42.2646 300.482 41.1407 301.445 40.1942C302.407 39.2478 303.551 38.7746 304.874 38.7746H429.436Z" fill="black"/>
<path d="M558.981 38.7746C560.305 38.7746 561.448 39.2478 562.411 40.1942C563.374 41.1407 563.855 42.2646 563.855 43.5659V158.203C563.855 159.504 563.374 160.628 562.411 161.575C561.448 162.521 560.305 162.994 558.981 162.994H521.793C520.469 162.994 519.326 162.521 518.363 161.575C517.4 160.628 516.919 159.504 516.919 158.203V120.405H480.814V158.203C480.814 159.504 480.333 160.628 479.37 161.575C478.407 162.521 477.264 162.994 475.94 162.994H438.752C437.428 162.994 436.285 162.58 435.322 161.752C434.36 160.806 433.878 159.623 433.878 158.203V43.5659C433.878 42.2646 434.36 41.1407 435.322 40.1942C436.285 39.2478 437.428 38.7746 438.752 38.7746H475.94C477.264 38.7746 478.407 39.2478 479.37 40.1942C480.333 41.1407 480.814 42.2646 480.814 43.5659V79.9445H516.919V43.5659C516.919 42.2646 517.4 41.1407 518.363 40.1942C519.326 39.2478 520.469 38.7746 521.793 38.7746H558.981Z" fill="black"/>
<path d="M172.241 267.339C173.564 267.339 174.708 267.812 175.67 268.758C176.633 269.705 177.115 270.829 177.115 272.13V290.94C177.115 308.923 170.857 322.291 158.34 331.046C145.944 339.682 129.517 344 109.057 344C88.598 344 72.1102 339.682 59.5939 331.046C47.198 322.291 41 308.804 41 290.586V269.646C41 257.579 44.0087 247.582 50.0262 239.656C56.0436 231.611 64.1672 225.696 74.3968 221.91C84.6265 218.124 96.18 216.231 109.057 216.231C124.462 216.231 137.159 218.716 147.148 223.684C157.137 228.653 164.358 234.273 168.811 240.543C173.384 246.813 175.67 251.9 175.67 255.804C175.67 256.869 175.249 257.815 174.407 258.643C173.685 259.353 172.782 259.708 171.699 259.708H130.901C128.494 259.708 126.749 259.057 125.665 257.756C121.935 253.142 116.399 250.835 109.057 250.835C103.521 250.835 98.8878 252.077 95.157 254.562C91.5466 257.046 89.7413 260.24 89.7413 264.145V294.312C89.7413 299.044 91.5466 302.771 95.157 305.492C98.7675 308.095 103.401 309.396 109.057 309.396C116.519 309.396 121.995 308.154 125.485 305.669C129.095 303.067 130.961 300.05 131.081 296.619H119.889C118.565 296.619 117.422 296.146 116.459 295.199C115.496 294.253 115.015 293.129 115.015 291.828V272.13C115.015 270.829 115.496 269.705 116.459 268.758C117.422 267.812 118.565 267.339 119.889 267.339H172.241Z" fill="black"/>
<path d="M310.632 336.724C310.872 337.197 310.993 337.73 310.993 338.321C310.993 339.386 310.571 340.333 309.729 341.161C309.007 341.871 308.104 342.225 307.021 342.225H266.042C264.357 342.225 262.793 341.811 261.349 340.983C260.025 340.155 259.062 339.09 258.46 337.789L242.574 302.653H227.41V337.434C227.41 338.735 226.929 339.859 225.966 340.806C225.003 341.752 223.86 342.225 222.536 342.225H183.543C182.219 342.225 181.076 341.752 180.113 340.806C179.15 339.859 178.669 338.735 178.669 337.434V222.797C178.669 221.496 179.15 220.372 180.113 219.425C181.076 218.479 182.219 218.006 183.543 218.006H253.767C264.598 218.006 274.045 219.721 282.109 223.152C290.293 226.583 296.551 231.552 300.883 238.058C305.216 244.565 307.382 252.196 307.382 260.95C307.382 277.04 301.064 288.693 288.427 295.909L310.632 336.724ZM249.976 269.823C252.623 269.823 254.669 268.995 256.113 267.339C257.558 265.564 258.28 263.376 258.28 260.773C258.28 258.17 257.558 255.922 256.113 254.029C254.79 252.018 252.744 251.013 249.976 251.013H227.41V269.823H249.976Z" fill="black"/>
<path d="M395.226 305.847H427.901C429.225 305.847 430.368 306.32 431.331 307.266C432.294 308.213 432.775 309.337 432.775 310.638V337.434C432.775 338.735 432.294 339.859 431.331 340.806C430.368 341.752 429.225 342.225 427.901 342.225H313.449C312.125 342.225 310.982 341.752 310.019 340.806C309.057 339.859 308.575 338.735 308.575 337.434V310.638C308.575 309.337 309.057 308.213 310.019 307.266C310.982 306.32 312.125 305.847 313.449 305.847H346.485V254.384H313.449C312.125 254.384 310.982 253.911 310.019 252.965C309.057 252.018 308.575 250.894 308.575 249.593V222.797C308.575 221.496 309.057 220.372 310.019 219.425C310.982 218.479 312.125 218.006 313.449 218.006H427.901C429.225 218.006 430.368 218.479 431.331 219.425C432.294 220.372 432.775 221.496 432.775 222.797V249.593C432.775 250.894 432.294 252.018 431.331 252.965C430.368 253.911 429.225 254.384 427.901 254.384H395.226V305.847Z" fill="black"/>
<path d="M501.845 218.006C522.184 218.006 538.431 222.324 550.587 230.96C562.862 239.596 569 252.965 569 271.065V289.166C569 307.621 562.922 321.108 550.767 329.626C538.732 338.026 522.425 342.225 501.845 342.225H444.258C442.934 342.225 441.791 341.752 440.828 340.806C439.866 339.859 439.384 338.735 439.384 337.434V222.797C439.384 221.496 439.866 220.372 440.828 219.425C441.791 218.479 442.934 218.006 444.258 218.006H501.845ZM502.748 307.621C508.404 307.621 512.857 306.32 516.107 303.717C519.476 300.996 521.161 297.211 521.161 292.36V267.871C521.161 263.021 519.476 259.294 516.107 256.691C512.857 253.97 508.404 252.61 502.748 252.61H486.32V307.621H502.748Z" fill="black"/>
<path d="M162.041 126.616C163.365 126.616 164.508 127.089 165.471 128.035C166.434 128.982 166.915 130.106 166.915 131.407V158.203C166.915 159.504 166.434 160.628 165.471 161.575C164.508 162.521 163.365 162.994 162.041 162.994H53.0048C51.681 162.994 50.5377 162.521 49.5749 161.575C48.6121 160.628 48.1307 159.504 48.1307 158.203V131.407C48.1307 130.106 48.6121 128.982 49.5749 128.035C50.5377 127.089 51.681 126.616 53.0048 126.616H86.4017V84.026L68.1688 95.9156C67.206 96.5071 66.3034 96.8029 65.4609 96.8029C63.8964 96.8029 62.5124 96.0339 61.3089 94.496L46.6865 72.1364C46.3255 71.4266 46.1449 70.5985 46.1449 69.652C46.1449 67.7592 46.867 66.2803 48.3112 65.2156L88.3874 39.4844C89.2299 39.0112 90.1926 38.7746 91.2758 38.7746H128.464C129.787 38.7746 130.931 39.2478 131.894 40.1942C132.856 41.1407 133.338 42.2646 133.338 43.5659V126.616H162.041Z" stroke="#111111" stroke-width="74" mask="url(#path-2-outside-2_103_540)"/>
<path d="M295.919 117.033C295.919 132.767 290.323 144.657 279.13 152.702C268.058 160.746 253.496 164.769 235.443 164.769C217.271 164.769 202.648 160.746 191.576 152.702C180.504 144.657 174.968 132.649 174.968 116.678V85.0908C174.968 74.4434 177.676 65.5114 183.092 58.2948C188.507 51.0782 195.728 45.7545 204.755 42.3237C213.901 38.7746 224.131 37 235.443 37C246.756 37 256.926 38.7746 265.952 42.3237C275.098 45.7545 282.38 51.0782 287.795 58.2948C293.211 65.3931 295.919 74.2067 295.919 84.7358V117.033ZM223.709 118.453C223.709 121.765 224.853 124.545 227.139 126.793C229.426 128.923 232.194 129.987 235.443 129.987C238.693 129.987 241.461 128.863 243.748 126.616C246.034 124.368 247.178 121.647 247.178 118.453V82.9613C247.178 79.6488 246.034 76.9277 243.748 74.7983C241.581 72.5505 238.813 71.4266 235.443 71.4266C232.074 71.4266 229.246 72.5505 226.959 74.7983C224.793 77.0461 223.709 79.7671 223.709 82.9613V118.453Z" stroke="#111111" stroke-width="74" mask="url(#path-2-outside-2_103_540)"/>
<path d="M429.436 38.7746C430.759 38.7746 431.903 39.2478 432.866 40.1942C433.828 41.1407 434.31 42.2646 434.31 43.5659V72.1364C434.31 73.4378 433.828 74.5617 432.866 75.5081C431.903 76.4545 430.759 76.9277 429.436 76.9277H390.623V158.203C390.623 159.504 390.142 160.628 389.179 161.575C388.216 162.521 387.073 162.994 385.749 162.994H348.561C347.237 162.994 346.094 162.521 345.131 161.575C344.168 160.628 343.687 159.504 343.687 158.203V76.9277H304.874C303.551 76.9277 302.407 76.4545 301.445 75.5081C300.482 74.5617 300 73.4378 300 72.1364V43.5659C300 42.2646 300.482 41.1407 301.445 40.1942C302.407 39.2478 303.551 38.7746 304.874 38.7746H429.436Z" stroke="#111111" stroke-width="74" mask="url(#path-2-outside-2_103_540)"/>
<path d="M558.981 38.7746C560.305 38.7746 561.448 39.2478 562.411 40.1942C563.374 41.1407 563.855 42.2646 563.855 43.5659V158.203C563.855 159.504 563.374 160.628 562.411 161.575C561.448 162.521 560.305 162.994 558.981 162.994H521.793C520.469 162.994 519.326 162.521 518.363 161.575C517.4 160.628 516.919 159.504 516.919 158.203V120.405H480.814V158.203C480.814 159.504 480.333 160.628 479.37 161.575C478.407 162.521 477.264 162.994 475.94 162.994H438.752C437.428 162.994 436.285 162.58 435.322 161.752C434.36 160.806 433.878 159.623 433.878 158.203V43.5659C433.878 42.2646 434.36 41.1407 435.322 40.1942C436.285 39.2478 437.428 38.7746 438.752 38.7746H475.94C477.264 38.7746 478.407 39.2478 479.37 40.1942C480.333 41.1407 480.814 42.2646 480.814 43.5659V79.9445H516.919V43.5659C516.919 42.2646 517.4 41.1407 518.363 40.1942C519.326 39.2478 520.469 38.7746 521.793 38.7746H558.981Z" stroke="#111111" stroke-width="74" mask="url(#path-2-outside-2_103_540)"/>
<path d="M172.241 267.339C173.564 267.339 174.708 267.812 175.67 268.758C176.633 269.705 177.115 270.829 177.115 272.13V290.94C177.115 308.923 170.857 322.291 158.34 331.046C145.944 339.682 129.517 344 109.057 344C88.598 344 72.1102 339.682 59.5939 331.046C47.198 322.291 41 308.804 41 290.586V269.646C41 257.579 44.0087 247.582 50.0262 239.656C56.0436 231.611 64.1672 225.696 74.3968 221.91C84.6265 218.124 96.18 216.231 109.057 216.231C124.462 216.231 137.159 218.716 147.148 223.684C157.137 228.653 164.358 234.273 168.811 240.543C173.384 246.813 175.67 251.9 175.67 255.804C175.67 256.869 175.249 257.815 174.407 258.643C173.685 259.353 172.782 259.708 171.699 259.708H130.901C128.494 259.708 126.749 259.057 125.665 257.756C121.935 253.142 116.399 250.835 109.057 250.835C103.521 250.835 98.8878 252.077 95.157 254.562C91.5466 257.046 89.7413 260.24 89.7413 264.145V294.312C89.7413 299.044 91.5466 302.771 95.157 305.492C98.7675 308.095 103.401 309.396 109.057 309.396C116.519 309.396 121.995 308.154 125.485 305.669C129.095 303.067 130.961 300.05 131.081 296.619H119.889C118.565 296.619 117.422 296.146 116.459 295.199C115.496 294.253 115.015 293.129 115.015 291.828V272.13C115.015 270.829 115.496 269.705 116.459 268.758C117.422 267.812 118.565 267.339 119.889 267.339H172.241Z" stroke="#111111" stroke-width="74" mask="url(#path-2-outside-2_103_540)"/>
<path d="M310.632 336.724C310.872 337.197 310.993 337.73 310.993 338.321C310.993 339.386 310.571 340.333 309.729 341.161C309.007 341.871 308.104 342.225 307.021 342.225H266.042C264.357 342.225 262.793 341.811 261.349 340.983C260.025 340.155 259.062 339.09 258.46 337.789L242.574 302.653H227.41V337.434C227.41 338.735 226.929 339.859 225.966 340.806C225.003 341.752 223.86 342.225 222.536 342.225H183.543C182.219 342.225 181.076 341.752 180.113 340.806C179.15 339.859 178.669 338.735 178.669 337.434V222.797C178.669 221.496 179.15 220.372 180.113 219.425C181.076 218.479 182.219 218.006 183.543 218.006H253.767C264.598 218.006 274.045 219.721 282.109 223.152C290.293 226.583 296.551 231.552 300.883 238.058C305.216 244.565 307.382 252.196 307.382 260.95C307.382 277.04 301.064 288.693 288.427 295.909L310.632 336.724ZM249.976 269.823C252.623 269.823 254.669 268.995 256.113 267.339C257.558 265.564 258.28 263.376 258.28 260.773C258.28 258.17 257.558 255.922 256.113 254.029C254.79 252.018 252.744 251.013 249.976 251.013H227.41V269.823H249.976Z" stroke="#111111" stroke-width="74" mask="url(#path-2-outside-2_103_540)"/>
<path d="M395.226 305.847H427.901C429.225 305.847 430.368 306.32 431.331 307.266C432.294 308.213 432.775 309.337 432.775 310.638V337.434C432.775 338.735 432.294 339.859 431.331 340.806C430.368 341.752 429.225 342.225 427.901 342.225H313.449C312.125 342.225 310.982 341.752 310.019 340.806C309.057 339.859 308.575 338.735 308.575 337.434V310.638C308.575 309.337 309.057 308.213 310.019 307.266C310.982 306.32 312.125 305.847 313.449 305.847H346.485V254.384H313.449C312.125 254.384 310.982 253.911 310.019 252.965C309.057 252.018 308.575 250.894 308.575 249.593V222.797C308.575 221.496 309.057 220.372 310.019 219.425C310.982 218.479 312.125 218.006 313.449 218.006H427.901C429.225 218.006 430.368 218.479 431.331 219.425C432.294 220.372 432.775 221.496 432.775 222.797V249.593C432.775 250.894 432.294 252.018 431.331 252.965C430.368 253.911 429.225 254.384 427.901 254.384H395.226V305.847Z" stroke="#111111" stroke-width="74" mask="url(#path-2-outside-2_103_540)"/>
<path d="M501.845 218.006C522.184 218.006 538.431 222.324 550.587 230.96C562.862 239.596 569 252.965 569 271.065V289.166C569 307.621 562.922 321.108 550.767 329.626C538.732 338.026 522.425 342.225 501.845 342.225H444.258C442.934 342.225 441.791 341.752 440.828 340.806C439.866 339.859 439.384 338.735 439.384 337.434V222.797C439.384 221.496 439.866 220.372 440.828 219.425C441.791 218.479 442.934 218.006 444.258 218.006H501.845ZM502.748 307.621C508.404 307.621 512.857 306.32 516.107 303.717C519.476 300.996 521.161 297.211 521.161 292.36V267.871C521.161 263.021 519.476 259.294 516.107 256.691C512.857 253.97 508.404 252.61 502.748 252.61H486.32V307.621H502.748Z" stroke="#111111" stroke-width="74" mask="url(#path-2-outside-2_103_540)"/>
</g>
<defs>
<filter id="filter0_d_103_540" x="0" y="0" width="610" height="424.181" filterUnits="userSpaceOnUse" color-interpolation-filters="sRGB">
<feFlood flood-opacity="0" result="BackgroundImageFix"/>
<feColorMatrix in="SourceAlpha" type="matrix" values="0 0 0 0 0 0 0 0 0 0 0 0 0 0 0 0 0 0 127 0" result="hardAlpha"/>
<feOffset dy="4"/>
<feGaussianBlur stdDeviation="2"/>
<feComposite in2="hardAlpha" operator="out"/>
<feColorMatrix type="matrix" values="0 0 0 0 0 0 0 0 0 0 0 0 0 0 0 0 0 0 0.25 0"/>
<feBlend mode="normal" in2="BackgroundImageFix" result="effect1_dropShadow_103_540"/>
<feBlend mode="normal" in="SourceGraphic" in2="effect1_dropShadow_103_540" result="shape"/>
</filter>
</defs>
</svg>
