<svg width="65" height="69" viewBox="0 0 65 69" fill="none" xmlns="http://www.w3.org/2000/svg">
<path d="M13.5417 17.25C13.5417 10.8987 18.3919 5.75 24.375 5.75H40.625C46.608 5.75 51.4584 10.8987 51.4584 17.25C51.4584 20.6847 50.0397 23.7678 47.7907 25.875C50.0397 27.9822 51.4584 31.0652 51.4584 34.5C51.4584 40.8512 46.608 46 40.625 46C38.6517 46 36.8017 45.4399 35.2084 44.4616V51.75C35.2084 58.1012 30.358 63.25 24.375 63.25C18.3919 63.25 13.5417 58.1012 13.5417 51.75C13.5417 48.3152 14.9602 45.2321 17.2093 43.125C14.9602 41.0179 13.5417 37.9348 13.5417 34.5C13.5417 31.0652 14.9602 27.9822 17.2093 25.875C14.9602 23.7678 13.5417 20.6847 13.5417 17.25ZM29.7917 28.75H24.375C21.3835 28.75 18.9584 31.3243 18.9584 34.5C18.9584 37.6757 21.3835 40.25 24.375 40.25H29.7917V28.75ZM35.2084 34.5C35.2084 37.6757 37.6334 40.25 40.625 40.25C43.6166 40.25 46.0417 37.6757 46.0417 34.5C46.0417 31.3243 43.6166 28.75 40.625 28.75C37.6334 28.75 35.2084 31.3243 35.2084 34.5ZM40.625 23C43.6166 23 46.0417 20.4256 46.0417 17.25C46.0417 14.0744 43.6166 11.5 40.625 11.5H35.2084V23H40.625ZM24.375 11.5C21.3835 11.5 18.9584 14.0744 18.9584 17.25C18.9584 20.4256 21.3835 23 24.375 23H29.7917V11.5H24.375ZM29.7917 46H24.375C21.3835 46 18.9584 48.5743 18.9584 51.75C18.9584 54.9257 21.3835 57.5 24.375 57.5C27.3666 57.5 29.7917 54.9257 29.7917 51.75V46Z" fill="white"/>
</svg>
