<svg width="69" height="65" viewBox="0 0 69 65" fill="none" xmlns="http://www.w3.org/2000/svg">
<path d="M51.1 40.9239L51.25 41.1246H51.5005H57.1672C58.9867 41.1246 60.5005 39.7093 60.5005 37.9163V18.9581C60.5005 17.1652 58.9867 15.7498 57.1672 15.7498H55.1589C54.7107 15.7498 54.273 15.6274 53.8979 15.3992L53.8978 15.3992L42.1248 8.23778L42.1248 8.23777C40.0689 6.98731 37.4386 7.0139 35.4105 8.30617L35.4105 8.30618L20.1076 18.0581C18.3513 19.1772 18.0959 21.573 19.599 23.0097L20.4285 23.8026L20.4285 23.8026C22.034 25.3373 24.3834 25.9003 26.547 25.2799L33.5886 23.2606C35.7181 22.6499 38.0092 23.4055 39.2898 25.1191L51.1 40.9239ZM14.4226 38.3312L14.7434 38.7147L14.4226 38.3312L9.84462 42.1602C8.26049 43.4849 8.32848 45.8705 9.98034 47.1114L9.98039 47.1114L24.5459 58.0507C26.136 59.2449 28.4704 58.82 29.4857 57.1215C29.4857 57.1214 29.4857 57.1214 29.4857 57.1214L31.4801 53.7853C32.8151 51.5521 32.4907 48.7505 30.6862 46.8532L23.0302 38.8029C20.7699 36.4262 16.9469 36.2199 14.4226 38.3312ZM20.7311 13.9632L22.1774 13.0416H20.4624H8.99996C7.18052 13.0416 5.66663 14.457 5.66663 16.2499V36.6052C5.66663 37.8188 6.05458 38.9847 6.75242 39.9585L7.07857 40.4136L7.49403 40.0382C7.55732 39.9811 7.62187 39.9248 7.68767 39.8697L12.2655 36.0408C16.1314 32.8075 21.9989 33.1301 25.4503 36.7594L25.4503 36.7594L33.1066 44.8096C35.8445 47.6884 36.3273 51.9164 34.3119 55.2878L34.7411 55.5443L34.3119 55.2878L32.4581 58.3891L32.1471 58.9093L32.7169 59.1157C34.4465 59.7422 36.4171 59.6018 38.0609 58.659L50.5536 51.4941L50.5536 51.4941C52.2229 50.5366 52.6998 48.4002 51.5538 46.8653L51.5538 46.8653L36.6315 26.8819L36.6313 26.8816C36.1502 26.2382 35.3063 25.9687 34.533 26.1905L27.4914 28.2097L27.6293 28.6904L27.4914 28.2097C24.164 29.164 20.5613 28.2927 18.1131 25.9524L17.7676 26.3138L18.1131 25.9524L17.2836 25.1595C14.3616 22.3664 14.8357 17.7201 18.2863 15.5212L20.7311 13.9632Z" fill="url(#paint0_radial_169_14)" stroke="url(#paint1_radial_169_14)"/>
<defs>
<radialGradient id="paint0_radial_169_14" cx="0" cy="0" r="1" gradientUnits="userSpaceOnUse" gradientTransform="translate(37.4987 16.4998) rotate(91.5275) scale(37.5133 91.3345)">
<stop stop-color="#FFE2B3"/>
<stop offset="1" stop-color="#FDAF32"/>
</radialGradient>
<radialGradient id="paint1_radial_169_14" cx="0" cy="0" r="1" gradientUnits="userSpaceOnUse" gradientTransform="translate(36.4987 14.9998) rotate(94.4384) scale(44.1298 110.99)">
<stop stop-color="#FFE7C1"/>
<stop offset="1" stop-color="#FFC972"/>
</radialGradient>
</defs>
</svg>
