<svg width="83" height="78" viewBox="0 0 83 78" fill="none" xmlns="http://www.w3.org/2000/svg">
<path d="M61.8333 9.25C60.3145 9.25 59.0833 8.01878 59.0833 6.5C59.0833 4.42893 57.4044 2.75 55.3333 2.75H55C52.9289 2.75 51.25 4.42893 51.25 6.5C51.25 8.01878 50.0188 9.25 48.5 9.25H34.5C32.9812 9.25 31.75 8.01878 31.75 6.5C31.75 4.42893 30.0711 2.75 28 2.75H27.6667C25.5956 2.75 23.9167 4.42893 23.9167 6.5C23.9167 8.01878 22.6854 9.25 21.1667 9.25H10.75C8.61075 9.25 6.83333 10.9057 6.83333 13V65C6.83333 67.0944 8.61076 68.75 10.75 68.75H72.25C74.3893 68.75 76.1667 67.0944 76.1667 65V13C76.1667 10.9057 74.3893 9.25 72.25 9.25H61.8333ZM14.6667 33.25C14.6667 31.317 16.2337 29.75 18.1667 29.75H64.8333C66.7663 29.75 68.3333 31.317 68.3333 33.25V57.75C68.3333 59.683 66.7663 61.25 64.8333 61.25H18.1667C16.2337 61.25 14.6667 59.683 14.6667 57.75V33.25ZM24.25 35.25C22.1789 35.25 20.5 36.9289 20.5 39C20.5 41.0711 22.1789 42.75 24.25 42.75H24.5833C26.6544 42.75 28.3333 41.0711 28.3333 39C28.3333 36.9289 26.6544 35.25 24.5833 35.25H24.25ZM24.25 48.25C22.1789 48.25 20.5 49.9289 20.5 52C20.5 54.0711 22.1789 55.75 24.25 55.75H24.5833C26.6544 55.75 28.3333 54.0711 28.3333 52C28.3333 49.9289 26.6544 48.25 24.5833 48.25H24.25ZM37.9167 35.25C35.8456 35.25 34.1667 36.9289 34.1667 39C34.1667 41.0711 35.8456 42.75 37.9167 42.75H58.75C60.8211 42.75 62.5 41.0711 62.5 39C62.5 36.9289 60.8211 35.25 58.75 35.25H37.9167ZM37.9167 48.25C35.8456 48.25 34.1667 49.9289 34.1667 52C34.1667 54.0711 35.8456 55.75 37.9167 55.75H48.5C50.5711 55.75 52.25 54.0711 52.25 52C52.25 49.9289 50.5711 48.25 48.5 48.25H37.9167Z" fill="url(#paint0_radial_169_4)" stroke="url(#paint1_linear_169_4)"/>
<defs>
<radialGradient id="paint0_radial_169_4" cx="0" cy="0" r="1" gradientUnits="userSpaceOnUse" gradientTransform="translate(41.5013 18.5) rotate(84.03) scale(76.9172 80.8616)">
<stop stop-color="#FFFBE9"/>
<stop offset="1" stop-color="#FFA700"/>
</radialGradient>
<linearGradient id="paint1_linear_169_4" x1="41.5" y1="3.25" x2="41.5" y2="68.25" gradientUnits="userSpaceOnUse">
<stop stop-color="#FFFCF0"/>
<stop offset="1" stop-color="#FFD438"/>
</linearGradient>
</defs>
</svg>
